<?xml version="1.0" encoding="UTF-8"?>
<svg id="_圖層_2" data-name="圖層 2" xmlns="http://www.w3.org/2000/svg" viewBox="0 0 52.28 65.35">
  <defs>
    <style>
      .cls-1 {
        fill: #fff;
      }
    </style>
  </defs>
  <g id="_圖層_1-2" data-name="圖層 1">
    <g>
      <path class="cls-1" d="M44.57,30.31c-.2-1.07-.73-2.05-1.51-2.8-.93-.91-2.18-1.4-3.48-1.37-1.22.05-2.38.55-3.24,1.42-.24-.42-.55-.81-.9-1.14-.93-.91-2.18-1.4-3.48-1.36-.91.04-1.79.33-2.54.84V9.26c0-2.71-2.2-4.9-4.9-4.9-2.69.04-4.87,2.21-4.9,4.9v29.16l-5.85-5.14c-1.84-1.9-4.76-2.24-6.99-.81-2.51,1.71-3.16,5.14-1.45,7.65.18.26.38.51.6.73l14.21,14.54c1.77,1.78,2.76,4.19,2.75,6.69,0,1.81,1.48,3.27,3.28,3.27,0,0,0,0,0,0h18.5c1.8,0,3.27-1.46,3.27-3.27v-3.04c0-2.35.69-4.64,1.99-6.59,1.54-2.31,2.37-5.02,2.36-7.8v-10.14c0-1.41-.58-2.76-1.6-3.74-.93-.91-2.19-1.4-3.49-1.37-.95.04-1.86.35-2.63.9ZM29.41,30.19c-.01-.72.24-1.42.7-1.98.87-1.11,2.46-1.3,3.57-.43.09.07.17.14.24.22.59.57.93,1.36.93,2.18v.87c0,.6.48,1.09,1.08,1.1.6,0,1.09-.48,1.1-1.08-.01-.8.33-1.56.94-2.08,1.03-.92,2.59-.88,3.57.09.59.57.93,1.36.93,2.18v3.05c0,.6.49,1.09,1.09,1.09s1.09-.49,1.09-1.09c.03-1.45,1.18-2.63,2.62-2.72.71-.01,1.39.26,1.89.76.59.57.93,1.36.93,2.18v10.14c0,2.33-.68,4.61-1.97,6.55-1.51,2.19-2.34,4.77-2.38,7.42v3.45c0,.6-.49,1.09-1.09,1.09h-18.52c-.6,0-1.08-.48-1.09-1.08.01-3.08-1.2-6.04-3.38-8.23l-14.21-14.54c-1.28-1.33-1.23-3.43.09-4.71.13-.12.27-.24.42-.34.51-.34,1.11-.52,1.72-.51.97.01,1.89.41,2.57,1.11l7.71,6.77c.45.4,1.14.36,1.54-.1.18-.2.27-.46.27-.72V9.42c-.03-1.44,1.02-2.67,2.44-2.87,1.5-.16,2.83.93,2.99,2.42,0,.09.01.19.01.28v21.24c0,.6.49,1.09,1.09,1.09h0c.6,0,1.09-.49,1.09-1.09v-.31Z"/>
      <path class="cls-1" d="M3.59,14.93c.43.42,1.12.41,1.54-.03.41-.42.41-1.09,0-1.51l-1.41-1.41h9.37c.1,2.35.94,4.62,2.39,6.48.37.47,1.05.56,1.53.19s.56-1.05.19-1.53h0c-1.27-1.62-1.96-3.62-1.95-5.68,0-5.11,4.14-9.26,9.26-9.26s9.26,4.14,9.26,9.26c0,2.06-.68,4.06-1.95,5.68-.37.47-.29,1.16.19,1.53s1.16.29,1.53-.19c1.45-1.86,2.29-4.12,2.39-6.48h9.37l-1.41,1.41c-.43.42-.44,1.11-.03,1.54.42.43,1.11.44,1.54.03,0,0,.02-.02.03-.03l3.27-3.27c.43-.43.43-1.11,0-1.54l-3.27-3.27c-.43-.42-1.12-.41-1.54.03-.41.42-.41,1.09,0,1.51l1.41,1.41h-9.48C34.92,3.56,29.13-.78,22.89.12c-5.02.72-8.97,4.66-9.69,9.69H3.72l1.41-1.41c.43-.42.44-1.11.03-1.54s-1.11-.44-1.54-.03c0,0-.02.02-.03.03L.32,10.12c-.43.43-.43,1.11,0,1.54l3.27,3.27Z"/>
    </g>
  </g>
</svg>