<?xml version="1.0" encoding="UTF-8"?>
<svg id="_圖層_2" data-name="圖層 2" xmlns="http://www.w3.org/2000/svg" viewBox="0 0 29.99 30.01">
  <defs>
    <style>
      .cls-1 {
        fill: #fff;
      }
    </style>
  </defs>
  <g id="_圖層_1-2" data-name="圖層 1">
    <path class="cls-1" d="M25.6,4.4C19.74-1.46,10.25-1.47,4.39,4.4-.32,9.11-1.21,16.12,1.58,21.7L.03,28.49c-.2.88.59,1.67,1.47,1.47l6.79-1.54c9.88,4.93,21.69-2.21,21.69-13.42,0-4.01-1.56-7.77-4.39-10.6h0ZM18.13,18.73h-9.38c-.68,0-1.23-.55-1.23-1.23s.55-1.23,1.23-1.23h9.38c.68,0,1.23.55,1.23,1.23s-.55,1.23-1.23,1.23ZM21.25,13.73h-12.51c-.68,0-1.23-.55-1.23-1.23s.55-1.23,1.23-1.23h12.51c.68,0,1.23.55,1.23,1.23s-.55,1.23-1.23,1.23Z"/>
  </g>
</svg>