<svg width="19" height="18" viewBox="0 0 19 18" fill="none" xmlns="http://www.w3.org/2000/svg">
<path d="M10.121 4.51269C10.121 4.36017 10.0602 4.21363 9.95255 4.10597C9.84489 3.99831 9.69835 3.9375 9.54583 3.9375C9.39332 3.9375 9.24678 3.99831 9.13912 4.10597C9.03146 4.21363 8.97065 4.36017 8.97065 4.51269V5.46569C8.5091 5.52051 8.08244 5.73883 7.76744 6.07975C7.45243 6.42167 7.27 6.86428 7.25306 7.32882C7.25306 8.19609 7.82824 8.857 8.97065 9.31257V11.4937C8.54499 11.3422 8.17216 11.071 7.89703 10.7122C7.85018 10.6553 7.79136 10.6095 7.72358 10.5786C7.65679 10.5477 7.58401 10.5317 7.51025 10.5317C7.43548 10.5277 7.36171 10.5397 7.29193 10.5656C7.22215 10.5915 7.15836 10.6314 7.10453 10.6833C7.05069 10.7351 7.00783 10.7969 6.97892 10.8647C6.95001 10.9335 6.93506 11.0062 6.93506 11.081C6.93506 11.2116 6.98391 11.3372 7.07263 11.4329C7.29193 11.7499 7.57305 12.02 7.89902 12.2264C8.225 12.4327 8.58885 12.5713 8.96965 12.6341V13.6041C8.96965 13.7566 9.03046 13.9031 9.13812 14.0108C9.24578 14.1184 9.39232 14.1792 9.54484 14.1792C9.69736 14.1792 9.8439 14.1184 9.95156 14.0108C10.0592 13.9031 10.12 13.7566 10.12 13.6041V12.659C10.6434 12.6371 11.1398 12.4178 11.5077 12.045C11.8755 11.6721 12.0888 11.1737 12.1038 10.6494C12.1038 9.66147 11.4259 9.04342 10.3353 8.62274L10.121 8.53701V6.6051C10.4281 6.71974 10.6972 6.91612 10.9026 7.17231C10.9524 7.23013 11.0142 7.27798 11.084 7.30988C11.1538 7.34277 11.2295 7.35972 11.3063 7.36072C11.3801 7.36072 11.4528 7.34576 11.5206 7.31785C11.5884 7.28894 11.6502 7.24708 11.701 7.19424C11.7519 7.14141 11.7928 7.07861 11.8187 7.00982C11.8456 6.94104 11.8576 6.86727 11.8556 6.7945C11.8476 6.66989 11.8027 6.55027 11.727 6.45158C11.5406 6.18642 11.3013 5.96113 11.0252 5.78967C10.749 5.61821 10.442 5.50456 10.121 5.45572V4.51069V4.51269ZM8.96965 8.01565C8.83707 7.95485 8.72343 7.85815 8.64168 7.73753C8.55994 7.61591 8.51309 7.47536 8.50611 7.32882C8.50312 7.18128 8.54598 7.03674 8.62872 6.91512C8.71146 6.7935 8.83109 6.7008 8.96965 6.65095V8.01665V8.01565ZM10.8587 10.6733C10.8617 10.8786 10.7919 11.078 10.6603 11.2355C10.5238 11.399 10.3314 11.5057 10.121 11.5356V9.81798C10.5666 10.0064 10.8577 10.2546 10.8597 10.6733H10.8587Z" fill="white"/>
<path d="M17.9595 7.70894C17.6295 7.70894 17.3614 7.9771 17.3614 8.30706V13.5186C17.3614 14.2763 17.0663 14.988 16.531 15.5243C15.9957 16.0596 15.2829 16.3547 14.5253 16.3547H4.22175C3.46414 16.3547 2.75238 16.0596 2.21607 15.5243C1.68076 14.989 1.38568 14.2763 1.38568 13.5186V4.93269C1.38568 4.17508 1.68076 3.46332 2.21607 2.92701C2.75138 2.39169 3.46414 2.09662 4.22175 2.09662H9.87096C10.2009 2.09662 10.4691 1.82847 10.4691 1.49851C10.4691 1.16855 10.2009 0.900391 9.87096 0.900391H4.22175C3.14415 0.900391 2.13233 1.32007 1.37073 2.08167C0.609131 2.84227 0.189453 3.85508 0.189453 4.93269V13.5186C0.189453 14.5953 0.609131 15.6081 1.37073 16.3697C2.13233 17.1313 3.14514 17.5509 4.22175 17.5509H14.5253C15.6029 17.5509 16.6147 17.1313 17.3763 16.3697C18.1379 15.6081 18.5576 14.5953 18.5576 13.5186V8.30706C18.5576 7.9771 18.2894 7.70894 17.9595 7.70894Z" fill="white"/>
<path d="M18.1851 0.042865H18.1831C18.1482 0.0289089 18.1123 0.0179435 18.0744 0.0109655C18.0744 0.0109655 18.0724 0.0109655 18.0714 0.0109655C18.0355 0.00398744 17.9977 0 17.9598 0H14.079C13.749 0 13.4809 0.268155 13.4809 0.598116C13.4809 0.928077 13.749 1.19623 14.079 1.19623H16.5153L12.6764 5.03514C12.4431 5.2684 12.4431 5.64721 12.6764 5.88147C12.793 5.99811 12.9466 6.05692 13.0991 6.05692C13.2516 6.05692 13.4051 5.99811 13.5218 5.88147L17.3607 2.04257V4.48886C17.3607 4.81882 17.6288 5.08698 17.9588 5.08698C18.2887 5.08698 18.5569 4.81882 18.5569 4.48886V0.597119C18.5569 0.346907 18.4024 0.132582 18.1841 0.042865H18.1851Z" fill="white"/>
</svg>
