<?xml version="1.0" encoding="UTF-8"?>
<svg id="_圖層_2" data-name="圖層 2" xmlns="http://www.w3.org/2000/svg" viewBox="0 0 22.68 16.2">
  <defs>
    <style>
      .cls-1 {
        fill: #fff;
      }
    </style>
  </defs>
  <g id="_圖層_1-2" data-name="圖層 1">
    <g>
      <path class="cls-1" d="M0,12.96c0,1.79,1.45,3.24,3.24,3.24h16.2c1.79,0,3.24-1.45,3.24-3.24v-6.88H0v6.88ZM8.88,11.34h.83c.45,0,.81.36.81.81s-.36.81-.81.81h-.83c-.45,0-.81-.36-.81-.81s.36-.81.81-.81ZM4.05,11.34h2.45c.45,0,.81.36.81.81s-.36.81-.81.81h-2.45c-.45,0-.81-.36-.81-.81s.36-.81.81-.81Z"/>
      <path class="cls-1" d="M19.44,0H3.24C1.45,0,0,1.45,0,3.24v1.21h22.68v-1.21c0-1.79-1.45-3.24-3.24-3.24Z"/>
    </g>
  </g>
</svg>