<svg width="19" height="18" viewBox="0 0 19 18" fill="none" xmlns="http://www.w3.org/2000/svg">
<path d="M9.93059 4.51855C9.93059 4.36603 9.86979 4.21949 9.76212 4.11183C9.65446 4.00417 9.50792 3.94336 9.35541 3.94336C9.20289 3.94336 9.05635 4.00417 8.94869 4.11183C8.84103 4.21949 8.78022 4.36603 8.78022 4.51855V5.47155C8.31867 5.52637 7.89201 5.74469 7.57701 6.08561C7.262 6.42654 7.07957 6.87014 7.06263 7.33468C7.06263 8.20194 7.63782 8.86286 8.78022 9.31843V11.4996C8.35456 11.348 7.98173 11.0769 7.7066 10.718C7.65975 10.6612 7.60093 10.6153 7.53315 10.5844C7.46636 10.5535 7.39359 10.5376 7.31982 10.5376C7.24505 10.5336 7.17129 10.5456 7.1015 10.5715C7.03172 10.5974 6.96793 10.6373 6.9141 10.6891C6.86027 10.7409 6.8174 10.8028 6.78849 10.8705C6.75958 10.9393 6.74463 11.0121 6.74463 11.0869C6.74463 11.2174 6.79348 11.3431 6.8822 11.4387C7.10151 11.7558 7.38262 12.0259 7.70859 12.2323C8.03457 12.4386 8.39842 12.5772 8.77922 12.64V13.6099C8.77922 13.7624 8.84003 13.909 8.94769 14.0166C9.05535 14.1243 9.20189 14.1851 9.35441 14.1851C9.50693 14.1851 9.65347 14.1243 9.76113 14.0166C9.86879 13.909 9.9296 13.7624 9.9296 13.6099V12.6649C10.4529 12.643 10.9494 12.4236 11.3172 12.0508C11.6851 11.678 11.8984 11.1796 11.9133 10.6552C11.9133 9.66733 11.2355 9.04928 10.1449 8.6286L9.93059 8.54287V6.61096C10.2376 6.7256 10.5068 6.92198 10.7121 7.17817C10.762 7.23599 10.8238 7.28384 10.8936 7.31574C10.9633 7.34863 11.0391 7.36558 11.1159 7.36658C11.1896 7.36658 11.2624 7.35162 11.3302 7.32371C11.398 7.2948 11.4598 7.25293 11.5106 7.2001C11.5615 7.14727 11.6023 7.08447 11.6282 7.01568C11.6552 6.9469 11.6671 6.87313 11.6651 6.80036C11.6572 6.67575 11.6123 6.55613 11.5365 6.45744C11.3501 6.19228 11.1109 5.96699 10.8347 5.79553C10.5586 5.62407 10.2516 5.51042 9.93059 5.46158V4.51655V4.51855ZM8.77922 8.02151C8.64664 7.9607 8.533 7.86401 8.45125 7.74339C8.36951 7.62177 8.32266 7.48122 8.31568 7.33468C8.31269 7.18714 8.35556 7.0426 8.43829 6.92098C8.52103 6.79936 8.64066 6.70666 8.77922 6.65681V8.02251V8.02151ZM10.6683 10.6791C10.6713 10.8845 10.6015 11.0839 10.4699 11.2414C10.3333 11.4049 10.1409 11.5115 9.93059 11.5414V9.82384C10.3762 10.0122 10.6673 10.2605 10.6693 10.6791H10.6683Z" fill="#FE7B82"/>
<path d="M17.769 7.71381C17.4391 7.71381 17.1709 7.98196 17.1709 8.31192V13.5235C17.1709 14.2811 16.8759 14.9929 16.3405 15.5292C15.8052 16.0645 15.0925 16.3596 14.3349 16.3596H4.03132C3.27371 16.3596 2.56195 16.0645 2.02564 15.5292C1.49033 14.9939 1.19526 14.2811 1.19526 13.5235V4.93855C1.19526 4.18093 1.49033 3.46918 2.02564 2.93287C2.56095 2.39755 3.27371 2.10248 4.03132 2.10248H9.68053C10.0105 2.10248 10.2786 1.83433 10.2786 1.50437C10.2786 1.17441 10.0105 0.90625 9.68053 0.90625H4.03132C2.95471 0.90625 1.9419 1.32593 1.1803 2.08753C0.418701 2.84913 -0.000976562 3.86094 -0.000976562 4.93855V13.5245C-0.000976562 14.6011 0.418701 15.6139 1.1803 16.3755C1.9419 17.1371 2.95471 17.5568 4.03132 17.5568H14.3349C15.4115 17.5568 16.4243 17.1371 17.1859 16.3755C17.9475 15.6139 18.3672 14.6011 18.3672 13.5245V8.31292C18.3672 7.98296 18.099 7.7148 17.769 7.7148V7.71381Z" fill="#FE7B82"/>
<path d="M12.311 5.4613C12.311 5.49918 12.315 5.53506 12.322 5.57095C12.322 5.57295 12.322 5.57494 12.322 5.57693C12.329 5.61282 12.3399 5.64671 12.3529 5.68061C12.3539 5.6836 12.3549 5.68659 12.3559 5.68858C12.3698 5.72247 12.3868 5.75437 12.4067 5.78528C12.4087 5.78727 12.4097 5.79026 12.4107 5.79225C12.4327 5.82515 12.4576 5.85605 12.4855 5.88297C12.5134 5.91088 12.5433 5.93481 12.5762 5.95674C12.5792 5.95873 12.5812 5.95973 12.5842 5.96172C12.6141 5.98066 12.646 5.99761 12.6799 6.01156C12.6829 6.01256 12.6859 6.01356 12.6898 6.01555C12.7227 6.02851 12.7566 6.03848 12.7915 6.04546C12.7945 6.04546 12.7965 6.04546 12.7995 6.04645C12.8344 6.05243 12.8693 6.05642 12.9062 6.05642C12.9062 6.05642 12.9072 6.05642 12.9082 6.05642C12.9082 6.05642 12.9082 6.05642 12.9092 6.05642H16.7979C17.1279 6.05642 17.396 5.78827 17.396 5.45831C17.396 5.12835 17.1279 4.86019 16.7979 4.86019H14.3526L18.1915 1.02128C18.4248 0.788018 18.4248 0.409211 18.1915 0.174949C17.9582 -0.0583163 17.5794 -0.0583163 17.3462 0.174949L13.5073 4.01386V1.57155C13.5073 1.24159 13.2391 0.973434 12.9092 0.973434C12.5792 0.973434 12.311 1.24159 12.311 1.57155V5.4613Z" fill="#FE7B82"/>
</svg>
