<?xml version="1.0" encoding="UTF-8"?>
<svg id="_圖層_2" data-name="圖層 2" xmlns="http://www.w3.org/2000/svg" viewBox="0 0 11.61 12.21">
  <defs>
    <style>
      .cls-1 {
        fill: #2991bf;
      }
    </style>
  </defs>
  <g id="_圖層_1-2" data-name="圖層 1">
    <path class="cls-1" d="M9.39,11.04h-1.98l-1.6,1.17-1.6-1.17h-1.98l-.61-1.89L0,7.99l.61-1.89-.61-1.89,1.6-1.17.61-1.89h1.98l1.6-1.17,1.6,1.17h1.98l.61,1.89,1.6,1.17-.61,1.89.61,1.89M2.91,10.09h1.6l1.29.94,1.29-.94h1.6l.49-1.52,1.29-.94-.49-1.52.49-1.52-1.29-.94-.49-1.52h-1.6l-1.29-.94-1.29.94h-1.6l-.49,1.52-1.29.94.49,1.52-.49,1.52,1.29.94.49,1.52ZM5.22,8.13l-1.86-1.86.67-.67,1.18,1.18,2.36-2.36.67.67-3.04,3.04Z"/>
  </g>
</svg>