<?xml version="1.0" encoding="UTF-8"?>
<svg id="_圖層_2" data-name="圖層 2" xmlns="http://www.w3.org/2000/svg" viewBox="0 0 49.73 35.48">
  <defs>
    <style>
      .cls-1 {
        fill: #fff;
      }
    </style>
  </defs>
  <g id="_圖層_1-2" data-name="圖層 1">
    <g id="Layer_16" data-name="Layer 16">
      <path class="cls-1" d="M40.77,32.35L8.96.54h0c-.72-.73-1.89-.72-2.61,0-.72.72-.71,1.89.01,2.61l2.78,2.78C5.76,8.26,2.85,11.19.57,14.59c-.76,1.13-.76,2.6,0,3.73,5.83,8.62,15.06,13.67,24.29,13.61,2.99.01,5.96-.49,8.79-1.47l4.51,4.51c.73.71,1.9.69,2.61-.04.69-.71.69-1.84,0-2.56h0ZM24.87,26.91c-5.78,0-10.47-4.69-10.47-10.47,0-1.49.32-2.95.93-4.31l2.91,2.91c-.78,3.66,1.56,7.26,5.22,8.03.93.2,1.89.2,2.81,0l2.91,2.91c-1.36.61-2.83.93-4.32.93h0Z"/>
      <path class="cls-1" d="M49.16,14.58C43.33,5.96,34.1.91,24.87.97c-2.99-.01-5.96.49-8.79,1.47l4.47,4.47c5.27-2.38,11.47-.05,13.85,5.22,1.24,2.74,1.24,5.89,0,8.63l6.19,6.19c3.38-2.31,6.29-5.25,8.57-8.64.76-1.13.76-2.6,0-3.73Z"/>
      <path class="cls-1" d="M24.87,9.67c-.47,0-.94.05-1.41.15l8.03,8.03c.78-3.66-1.56-7.26-5.22-8.03-.46-.1-.93-.15-1.41-.15h0Z"/>
    </g>
  </g>
</svg>