<?xml version="1.0" encoding="UTF-8"?>
<svg id="_圖層_2" data-name="圖層 2" xmlns="http://www.w3.org/2000/svg" viewBox="0 0 19.53 19.5">
  <defs>
    <style>
      .cls-1 {
        fill: #fff;
      }

      .cls-2 {
        fill: #907bff;
      }

      .cls-3 {
        fill: #dbdbdb;
      }
    </style>
  </defs>
  <g id="_圖層_1-2" data-name="圖層 1">
    <g>
      <path class="cls-3" d="M9.78,0C4.39,0,0,4.36,0,9.75s4.39,9.75,9.78,9.75,9.75-4.36,9.75-9.75S15.17,0,9.78,0ZM9.77,18.65C4.85,18.65.87,14.67.87,9.75S4.85.85,9.77.85s8.89,3.99,8.89,8.9-3.98,8.9-8.89,8.9Z"/>
      <path class="cls-2" d="M9.77.85C4.85.85.87,4.84.87,9.75s3.98,8.9,8.9,8.9,8.89-3.98,8.89-8.9S14.68.85,9.77.85ZM9.77,14.31c-2.52,0-4.57-2.04-4.57-4.56s2.05-4.56,4.57-4.56,4.56,2.04,4.56,4.56-2.04,4.56-4.56,4.56Z"/>
      <path class="cls-1" d="M14.33,9.75c0,2.52-2.04,4.56-4.56,4.56s-4.57-2.04-4.57-4.56,2.05-4.56,4.57-4.56,4.56,2.04,4.56,4.56Z"/>
    </g>
  </g>
</svg>