<?xml version="1.0" encoding="UTF-8"?>
<svg id="_圖層_2" data-name="圖層 2" xmlns="http://www.w3.org/2000/svg" viewBox="0 0 24.97 24.98">
  <defs>
    <style>
      .cls-1 {
        fill: #fff;
      }

      .cls-2 {
        fill: #c1bbf9;
      }

      .cls-3 {
        fill: #907bff;
      }
    </style>
  </defs>
  <g id="_圖層_1-2" data-name="圖層 1">
    <g id="Group-8">
      <path class="cls-3" d="M12.49,0C5.59,0,0,5.59,0,12.49s5.59,12.49,12.49,12.49,12.48-5.59,12.48-12.49S19.38,0,12.49,0ZM12.49,23.73c-6.21,0-11.24-5.03-11.24-11.24S6.28,1.25,12.49,1.25s11.24,5.03,11.24,11.24-5.04,11.24-11.24,11.24Z"/>
      <path class="cls-2" d="M12.49,1.25C6.28,1.25,1.25,6.28,1.25,12.49s5.03,11.24,11.24,11.24,11.24-5.03,11.24-11.24S18.69,1.25,12.49,1.25ZM12.49,21.65c-5.06,0-9.16-4.1-9.16-9.16S7.43,3.33,12.49,3.33s9.15,4.1,9.15,9.16-4.1,9.16-9.15,9.16Z"/>
      <path class="cls-1" d="M21.64,12.49c0,5.06-4.1,9.16-9.15,9.16S3.33,17.55,3.33,12.49,7.43,3.33,12.49,3.33s9.15,4.1,9.15,9.16Z"/>
    </g>
  </g>
</svg>