<?xml version="1.0" encoding="UTF-8"?>
<svg id="_圖層_2" data-name="圖層 2" xmlns="http://www.w3.org/2000/svg" viewBox="0 0 20.25 15.57">
  <defs>
    <style>
      .cls-1 {
        fill: #9d9d9e;
      }
    </style>
  </defs>
  <g id="_圖層_1-2" data-name="圖層 1">
    <path class="cls-1" d="M16.96,0H3.29C1.48,0,0,1.48,0,3.29v8.99c0,1.81,1.48,3.29,3.29,3.29h13.67c1.81,0,3.29-1.48,3.29-3.29V3.29c0-1.81-1.48-3.29-3.29-3.29h0ZM16.96,1.27c.35,0,.67.09.96.24l-7.8,5.5L2.24,1.56c.31-.19.66-.29,1.05-.29h13.67ZM18.98,12.28c0,1.12-.91,2.02-2.02,2.02H3.29c-1.12,0-2.02-.91-2.02-2.02V3.29c0-.27.05-.53.15-.77l8.35,5.78c.11.08.23.11.36.11s.26-.04.36-.12l8.3-5.86c.12.26.19.55.19.85v8.99Z"/>
  </g>
</svg>