<?xml version="1.0" encoding="UTF-8"?>
<svg id="_圖層_2" data-name="圖層 2" xmlns="http://www.w3.org/2000/svg" viewBox="0 0 36.56 36.62">
  <defs>
    <style>
      .cls-1 {
        fill: #fff;
        fill-rule: evenodd;
      }
    </style>
  </defs>
  <g id="_圖層_1-2" data-name="圖層 1">
    <g id="Icon">
      <path class="cls-1" d="M11.57,16.88c2.12-4.17,6.95-5.13,10.04-3.63,3.36,1.62,4.81,6.23,3.42,11.69-.94,3.68-4.46,8.15-7.61,11.31-.32.32-.79.45-1.23.33-4.31-1.15-9.59-3.26-12.25-5.98C.01,26.56-1.04,21.84,1.06,18.76c1.93-2.84,6.59-4.43,10.51-1.87Z"/>
      <path class="cls-1" d="M8.35,6.66c.32.63.06,1.4-.57,1.71-.63.32-1.4.06-1.71-.57l-.85-1.7c-.32-.63-.06-1.4.57-1.71.63-.32,1.4-.06,1.71.57l.85,1.7Z"/>
      <path class="cls-1" d="M27.36,29.95c-.32-.63-.06-1.4.57-1.71.63-.32,1.4-.06,1.71.57l.85,1.7c.32.63.06,1.4-.57,1.71-.63.32-1.4.06-1.71-.57l-.85-1.7Z"/>
      <path class="cls-1" d="M4.37,14.34c-.63.32-1.4.06-1.71-.57-.32-.63-.06-1.4.57-1.71l1.7-.85c.63-.32,1.4-.06,1.71.57.32.63.06,1.4-.57,1.71l-1.7.85Z"/>
      <path class="cls-1" d="M31.34,22.27c.63-.32,1.4-.06,1.71.57.32.63.06,1.4-.57,1.71l-1.7.85c-.63.32-1.4.06-1.71-.57-.32-.63-.06-1.4.57-1.71l1.7-.85Z"/>
      <path class="cls-1" d="M11.91,13.57c-.15-.42-.28-.82-.38-1.22-1.38-5.45.07-10.06,3.42-11.69,3.09-1.5,7.92-.54,10.04,3.64,3.92-2.55,8.58-.97,10.51,1.87,2.09,3.08,1.04,7.8-2.87,11.82-1.31,1.35-3.24,2.56-5.39,3.57.16-4.66-1.76-8.32-4.89-9.84-3.04-1.47-7.48-1.03-10.44,1.86Z"/>
    </g>
  </g>
</svg>