<?xml version="1.0" encoding="UTF-8"?>
<svg id="_圖層_2" data-name="圖層 2" xmlns="http://www.w3.org/2000/svg" viewBox="0 0 35.41 28.95">
  <defs>
    <style>
      .cls-1 {
        fill: #fff;
        fill-rule: evenodd;
      }
    </style>
  </defs>
  <g id="_圖層_1-2" data-name="圖層 1">
    <path class="cls-1" d="M16.49.87c.36.15.67.4.88.72.22.32.33.7.33,1.09v23.61c0,.39-.12.77-.33,1.09-.22.32-.52.58-.88.72s-.75.19-1.14.11-.73-.26-1.01-.54l-7.29-7.29H1.97c-.52,0-1.02-.21-1.39-.58-.37-.37-.58-.87-.58-1.39v-7.87c0-.52.21-1.02.58-1.39.37-.37.87-.58,1.39-.58h5.09L14.35,1.29c.28-.28.63-.46,1.01-.54.38-.08.78-.04,1.14.11h0ZM26.87.58c.37-.37.87-.58,1.39-.58s1.02.21,1.39.58c1.83,1.82,3.28,3.99,4.27,6.38.99,2.39,1.5,4.95,1.49,7.53,0,2.58-.5,5.14-1.49,7.53-.99,2.39-2.44,4.56-4.27,6.38-.37.36-.87.56-1.38.55-.52,0-1.01-.21-1.37-.58s-.57-.86-.58-1.37.19-1.01.55-1.38c1.46-1.46,2.62-3.19,3.42-5.1.79-1.91,1.2-3.96,1.19-6.02,0-4.35-1.76-8.28-4.61-11.13-.37-.37-.58-.87-.58-1.39s.21-1.02.58-1.39h0ZM21.3,6.14c.18-.18.4-.33.64-.43.24-.1.49-.15.75-.15s.51.05.75.15c.24.1.46.24.64.43,1.1,1.1,1.97,2.4,2.56,3.83.59,1.43.9,2.97.9,4.52,0,1.55-.3,3.09-.9,4.52-.59,1.43-1.46,2.73-2.56,3.83-.37.37-.87.58-1.39.58s-1.02-.21-1.39-.58c-.37-.37-.58-.87-.58-1.39s.21-1.02.58-1.39c.73-.73,1.31-1.6,1.71-2.55.4-.95.6-1.98.6-3.01,0-1.03-.2-2.06-.6-3.01-.4-.95-.98-1.82-1.71-2.55-.18-.18-.33-.4-.43-.64-.1-.24-.15-.49-.15-.75s.05-.51.15-.75c.1-.24.24-.46.43-.64h0Z"/>
  </g>
</svg>