<svg xmlns="http://www.w3.org/2000/svg" width="38.715" height="28.433" viewBox="0 0 38.715 28.433">
  <g id="Group_861" data-name="Group 861" transform="translate(-5811.77 -4035)">
    <path id="Path_524" data-name="Path 524" d="M248.795,2065.192a2.033,2.033,0,0,1,1.253,1.877v24.371a2.032,2.032,0,0,1-3.467,1.436l-7.529-7.529H233.8a2.03,2.03,0,0,1-2.03-2.031v-8.123a2.03,2.03,0,0,1,2.03-2.031h5.252l7.529-7.529a2.033,2.033,0,0,1,2.214-.441Z" transform="translate(5580 1969.962)" fill="#fff" fill-rule="evenodd"/>
    <g id="Group_860" data-name="Group 860" transform="translate(-1 0.485)">
      <rect id="Rectangle_474" data-name="Rectangle 474" width="4" height="20" rx="2" transform="translate(5848.657 4040.515) rotate(45)" fill="#fff"/>
      <rect id="Rectangle_475" data-name="Rectangle 475" width="4" height="20" rx="2" transform="translate(5851.485 4054.657) rotate(135)" fill="#fff"/>
    </g>
  </g>
</svg>
