<?xml version="1.0" encoding="UTF-8"?>
<svg id="_圖層_2" data-name="圖層 2" xmlns="http://www.w3.org/2000/svg" viewBox="0 0 14.69 24.11">
  <defs>
    <style>
      .cls-1 {
        fill: #9d9d9e;
      }
    </style>
  </defs>
  <g id="_圖層_1-2" data-name="圖層 1">
    <path class="cls-1" d="M12.68,0H2.02C.9,0,0,.9,0,2.02v20.08c0,1.11.9,2.02,2.02,2.02h10.66c1.11,0,2.02-.9,2.02-2.02V2.02c0-1.11-.9-2.02-2.02-2.02h0ZM2.02,1.51h10.66c.28,0,.51.23.51.51v15.48H1.51V2.02c0-.28.23-.51.51-.51h0ZM13.19,17.5v4.6c0,.28-.23.51-.51.51H2.02c-.28,0-.51-.23-.51-.51v-4.6M7.35,17.9c-.99,0-1.79.8-1.79,1.79s.8,1.79,1.79,1.79,1.79-.8,1.79-1.79-.8-1.79-1.79-1.79ZM7.35,19.97c-.16,0-.28-.13-.28-.28s.13-.28.28-.28.28.13.28.28-.13.28-.28.28ZM5.7,3.96c0-.42.34-.75.75-.75h1.79c.42,0,.75.34.75.75s-.34.75-.75.75h-1.79c-.42,0-.75-.34-.75-.75Z"/>
  </g>
</svg>