<?xml version="1.0" encoding="UTF-8"?>
<svg id="_圖層_2" data-name="圖層 2" xmlns="http://www.w3.org/2000/svg" viewBox="0 0 17.01 17.01">
  <defs>
    <style>
      .cls-1 {
        fill: #fff;
      }
    </style>
  </defs>
  <g id="_圖層_1-2" data-name="圖層 1">
    <path class="cls-1" d="M13.23,17.01H3.78c-1.01,0-1.96-.39-2.67-1.11-.71-.71-1.11-1.66-1.11-2.67v-.94c0-.52.42-.94.94-.94s.94.42.94.94v.94c0,.5.2.98.55,1.34.36.36.83.55,1.34.55h9.45c.5,0,.98-.2,1.34-.55.36-.36.55-.83.55-1.34v-.94c0-.52.42-.94.94-.94s.94.42.94.94v.94c0,1.01-.39,1.96-1.11,2.67s-1.66,1.11-2.67,1.11ZM8.5,13.23c-.52,0-.94-.42-.94-.94V3.23l-2.17,2.17c-.37.37-.97.37-1.34,0s-.37-.97,0-1.34L7.84.28s0,0,0,0c0,0,0,0,0,0,0,0,0,0,0,0,0,0,0,0,0,0,0,0,0,0,0,0,0,0,0,0,0,0t0,0c.09-.08.19-.15.29-.19.11-.05.24-.07.37-.07s.25.03.37.07c0,0,0,0,0,0,0,0,0,0,0,0,.11.04.21.11.29.19h0s0,0,0,0c0,0,0,0,0,0,0,0,0,0,0,0,0,0,0,0,0,0,0,0,0,0,0,0,0,0,0,0,0,0l3.78,3.78c.37.37.37.97,0,1.34-.37.37-.97.37-1.34,0l-2.17-2.17v9.06c0,.52-.42.94-.94.94h0Z"/>
  </g>
</svg>