<?xml version="1.0" encoding="UTF-8"?>
<svg id="_圖層_2" data-name="圖層 2" xmlns="http://www.w3.org/2000/svg" viewBox="0 0 22.6 22.65">
  <defs>
    <style>
      .cls-1 {
        fill: #9d9d9e;
      }
    </style>
  </defs>
  <g id="_圖層_1-2" data-name="圖層 1">
    <g>
      <path class="cls-1" d="M3.85,12.31l2.8-2.8c2.34,1.75,5.65,1.27,7.4-1.06,1.75-2.34,1.27-5.65-1.06-7.4C10.65-.69,7.33-.22,5.58,2.12c-1.41,1.88-1.41,4.46,0,6.33l-2.8,2.8-1.06-1.07c-.29-.29-.77-.29-1.07,0-.29.29-.29.77,0,1.07l1.06,1.07-1.49,1.49c-.3.29-.31.77-.02,1.06.29.3.77.31,1.06.02,0,0,.01-.01.02-.02l1.49-1.49,1.06,1.06c.29.3.77.31,1.06.02.3-.29.31-.77.02-1.06,0,0-.01-.01-.02-.02l-1.06-1.07ZM9.8,1.53c2.08,0,3.77,1.69,3.77,3.77s-1.69,3.77-3.77,3.77-3.77-1.69-3.77-3.77,1.69-3.77,3.77-3.77Z"/>
      <path class="cls-1" d="M21.85,7.56h-3.77c-.42,0-.75.34-.75.75s.34.75.75.75h1.95l-4.07,4.07c-2.34-1.75-5.65-1.27-7.4,1.06-1.75,2.34-1.27,5.65,1.06,7.4,2.34,1.75,5.65,1.27,7.4-1.06,1.4-1.88,1.4-4.46,0-6.33l4.07-4.07v1.95c0,.42.34.75.75.75s.75-.34.75-.75v-3.77c0-.42-.34-.75-.75-.75ZM12.81,21.11c-2.08,0-3.77-1.69-3.77-3.77s1.69-3.77,3.77-3.77,3.77,1.69,3.77,3.77-1.69,3.77-3.77,3.77Z"/>
    </g>
  </g>
</svg>