<svg xmlns="http://www.w3.org/2000/svg" width="18.969" height="18.969" viewBox="0 0 18.969 18.969">
  <g id="Group_870" data-name="Group 870" transform="translate(-653.878 -3784.541)">
    <path id="Path_526" data-name="Path 526" d="M-5206.729,2238.087l-3.839,3.839-1.977-1.978a.679.679,0,0,0-.958,0,.676.676,0,0,0,0,.958l2.456,2.457a.678.678,0,0,0,.479.2.676.676,0,0,0,.479-.2l4.318-4.318a.676.676,0,0,0,0-.958A.679.679,0,0,0-5206.729,2238.087Z" transform="translate(5873 1556)" fill="#9d9d9e"/>
    <path id="Path_527" data-name="Path 527" d="M-5203.54,2229.869h-1.016v-.651a.677.677,0,0,0-.678-.677.677.677,0,0,0-.677.677v.651h-7.452v-.651a.678.678,0,0,0-.678-.677.677.677,0,0,0-.677.677v.651h-1.016a3.391,3.391,0,0,0-3.388,3.387v10.867a3.392,3.392,0,0,0,3.388,3.387h12.194a3.391,3.391,0,0,0,3.387-3.387v-10.867A3.39,3.39,0,0,0-5203.54,2229.869Zm-14.227,3.387a2.034,2.034,0,0,1,2.033-2.032h1.016v.65a.677.677,0,0,0,.677.677.678.678,0,0,0,.678-.677v-.65h7.452v.65a.677.677,0,0,0,.677.677.677.677,0,0,0,.678-.677v-.65h1.016a2.034,2.034,0,0,1,2.032,2.032v.684h-16.259Zm14.227,12.9h-12.194a2.035,2.035,0,0,1-2.033-2.032v-8.828h16.259v8.828A2.034,2.034,0,0,1-5203.54,2246.155Z" transform="translate(5873 1556)" fill="#9d9d9e"/>
  </g>
</svg>
