<?xml version="1.0" encoding="UTF-8"?>
<svg id="_圖層_2" data-name="圖層 2" xmlns="http://www.w3.org/2000/svg" viewBox="0 0 26.64 26.64">
  <defs>
    <style>
      .cls-1, .cls-2 {
        fill: #fff;
      }

      .cls-2 {
        fill-rule: evenodd;
      }
    </style>
  </defs>
  <g id="_圖層_1-2" data-name="圖層 1">
    <g>
      <path class="cls-2" d="M17.76,0v4.44c0,1.96,1.59,3.55,3.55,3.55h5.32c0,.09.01.18.01.27v11.27c0,3.92-3.18,7.1-7.1,7.1H7.1c-3.92,0-7.1-3.18-7.1-7.1V7.1C0,3.18,3.18,0,7.1,0h10.65ZM18.2,13.32c0,.49-.4.89-.89.89h-3.11v3.11c0,.49-.4.89-.89.89s-.89-.4-.89-.89v-3.11h-3.11c-.49,0-.89-.4-.89-.89s.4-.89.89-.89h3.11v-3.11c0-.49.4-.89.89-.89s.89.4.89.89v3.11h3.11c.49,0,.89.4.89.89Z"/>
      <path class="cls-1" d="M19.53.33v4.11c0,.98.8,1.78,1.78,1.78h4.68c-.14-.2-.3-.38-.48-.55L20.46.96c-.28-.26-.59-.47-.93-.63Z"/>
    </g>
  </g>
</svg>