<?xml version="1.0" encoding="UTF-8"?>
<svg id="_圖層_2" data-name="圖層 2" xmlns="http://www.w3.org/2000/svg" viewBox="0 0 18.35 9.68">
  <defs>
    <style>
      .cls-1 {
        fill: #fff;
      }
    </style>
  </defs>
  <g id="_圖層_1-2" data-name="圖層 1">
    <g>
      <path class="cls-1" d="M18.21,4.48c-.16-.18-4.1-4.48-9.04-4.48S.3,4.3.14,4.48c-.18.2-.18.51,0,.72.16.18,4.1,4.48,9.04,4.48s8.87-4.3,9.04-4.48c.18-.2.18-.51,0-.72ZM9.18,8.6c-2.07,0-3.76-1.69-3.76-3.76s1.69-3.76,3.76-3.76,3.76,1.69,3.76,3.76-1.69,3.76-3.76,3.76Z"/>
      <path class="cls-1" d="M9.71,3.76c0-.54.27-1.02.68-1.31-.37-.19-.78-.3-1.21-.3-1.48,0-2.69,1.21-2.69,2.69s1.21,2.69,2.69,2.69c1.33,0,2.43-.97,2.64-2.23-1.08.35-2.1-.47-2.1-1.53Z"/>
    </g>
  </g>
</svg>