<svg width="15" height="15" viewBox="0 0 15 15" fill="none" xmlns="http://www.w3.org/2000/svg">
<path d="M14.4844 15H0.474058C0.211206 15 -0.000976562 14.7819 -0.000976562 14.5118V10.9123C-0.000976562 10.7822 0.0496938 10.6585 0.138367 10.5674L9.65489 0.78759C10.0444 0.387286 10.2566 0.169234 10.5638 0.0683445C10.8361 -0.0227815 11.1243 -0.0227815 11.3999 0.0683445C11.707 0.172489 11.9192 0.387286 12.3056 0.784335L13.832 2.353C14.2216 2.75331 14.4337 2.97136 14.5319 3.28705C14.6206 3.56693 14.6206 3.86309 14.5319 4.14624C14.4306 4.46192 14.2184 4.67997 13.832 5.08028C13.832 5.08028 13.8289 5.08679 13.8257 5.08679L5.12623 14.0269H14.4876C14.7504 14.0269 14.9626 14.245 14.9626 14.5151C14.9626 14.7852 14.7504 15.0033 14.4876 15.0033L14.4844 15ZM0.949093 14.0236H3.7803L13.1575 4.38707C13.1575 4.38707 13.1606 4.38381 13.1638 4.38056C13.414 4.1202 13.5977 3.93469 13.6262 3.84031C13.6515 3.7557 13.6515 3.66782 13.6262 3.58646C13.5977 3.49208 13.414 3.30332 13.1575 3.04296L11.6342 1.47429C11.3777 1.21067 11.1972 1.02517 11.1053 0.995878C11.023 0.969842 10.9375 0.969842 10.8583 0.995878C10.7665 1.02517 10.5828 1.21393 10.3294 1.47754L0.949093 11.1174V14.0269V14.0236Z" fill="black"/>
</svg>
