<?xml version="1.0" encoding="UTF-8"?>
<svg id="_圖層_2" data-name="圖層 2" xmlns="http://www.w3.org/2000/svg" viewBox="0 0 25.51 25.51">
  <defs>
    <style>
      .cls-1 {
        fill: #fff;
      }
    </style>
  </defs>
  <g id="_圖層_1-2" data-name="圖層 1">
    <g>
      <path class="cls-1" d="M9.45,4.13c-.66,0-1.2.54-1.2,1.2s.54,1.2,1.2,1.2c1.61,0,2.93,1.31,2.93,2.93,0,.66.54,1.2,1.2,1.2s1.2-.54,1.2-1.2c0-2.94-2.39-5.33-5.33-5.33h0Z"/>
      <path class="cls-1" d="M21.57,17.63c-.73-.62-1.78-.74-2.65-.41l-1.98-1.98c1.24-1.6,1.97-3.6,1.97-5.78C18.91,4.23,14.67,0,9.45,0S0,4.23,0,9.45s4.23,9.45,9.45,9.45c2.18,0,4.18-.74,5.78-1.97l1.98,1.98c-.33.87-.21,1.92.41,2.65,1.05,1.19,2.17,2.31,3.36,3.36,1.01.86,2.63.75,3.55-.16l.23-.23c.91-.91,1.02-2.54.16-3.55-1.05-1.19-2.17-2.31-3.36-3.36h0ZM14.44,14.44c-1.33,1.33-3.1,2.07-4.99,2.07s-3.66-.73-4.99-2.07c-1.33-1.33-2.07-3.1-2.07-4.99s.73-3.66,2.07-4.99c1.33-1.33,3.1-2.07,4.99-2.07s3.66.73,4.99,2.07c1.33,1.33,2.07,3.1,2.07,4.99s-.73,3.66-2.07,4.99Z"/>
    </g>
  </g>
</svg>