<?xml version="1.0" encoding="UTF-8"?>
<svg id="_圖層_2" data-name="圖層 2" xmlns="http://www.w3.org/2000/svg" viewBox="0 0 26.84 27.93">
  <defs>
    <style>
      .cls-1 {
        fill: #fff;
      }
    </style>
  </defs>
  <g id="_圖層_1-2" data-name="圖層 1">
    <g>
      <g>
        <path class="cls-1" d="M11.85,15.51H2.78c-.72,0-1.31.59-1.31,1.31v9.81c0,.72.59,1.31,1.31,1.31h9.22c.31,0,.31-.33.31-.33v-11.65s0-.44-.46-.44Z"/>
        <path class="cls-1" d="M24.05,15.51h-9.06c-.55,0-.47.57-.47.57v11.53s0,.32.33.32h9.2c.72,0,1.31-.59,1.31-1.31v-9.81c0-.72-.59-1.31-1.31-1.31Z"/>
      </g>
      <g>
        <path class="cls-1" d="M12.31,7.79s0-.44-.44-.44H1.31c-.72,0-1.31.59-1.31,1.31v4.08c0,.72.59,1.31,1.31,1.31h10.61c.4,0,.4-.35.4-.35v-5.9h0Z"/>
        <path class="cls-1" d="M25.53,7.35h-10.6c-.4,0-.4.38-.4.38v5.97s0,.34.49.34h10.52c.72,0,1.31-.59,1.31-1.31v-4.08c0-.72-.59-1.31-1.31-1.31Z"/>
      </g>
      <path class="cls-1" d="M7.87,6.38c-.6,0-1.14-.05-1.62-.14-1.22-.24-2.05-.7-2.56-1.41-.45-.64-.59-1.43-.41-2.34.31-1.6,1.39-2.48,3.03-2.48.35,0,.73.04,1.13.12,1.03.2,2.35.79,3.52,1.58,2,1.34,2.09,2.17,2,2.68-.15.75-.85,1.28-2.14,1.63-.87.24-1.95.37-2.96.37ZM6.31,2.09c-.64,0-.85.18-.97.79-.1.5.03.68.07.73.17.24.61.44,1.25.57.34.07.76.1,1.22.1,1,0,1.89-.15,2.48-.32.04-.01.11-.06.04-.11-.77-.63-2.17-1.46-3.34-1.69-.27-.05-.52-.08-.73-.08Z"/>
      <path class="cls-1" d="M19,6.38h0c-1.01,0-2.08-.14-2.96-.37-1.29-.35-1.99-.89-2.14-1.63-.1-.51,0-1.34,2-2.68,1.18-.79,2.49-1.38,3.52-1.58C19.83.04,20.21,0,20.56,0,22.2,0,23.27.88,23.59,2.48c.18.92.04,1.7-.41,2.34-.5.71-1.34,1.18-2.56,1.41-.48.09-1.02.14-1.62.14ZM16.5,3.85c-.07.04-.04.1,0,.11.59.17,1.48.32,2.5.32.46,0,.88-.04,1.22-.1.63-.12,1.08-.32,1.25-.57.04-.06.16-.23.07-.73-.12-.61-.34-.79-.97-.79-.21,0-.46.03-.73.08-1.17.23-2.56,1.05-3.33,1.68Z"/>
    </g>
  </g>
</svg>