<?xml version="1.0" encoding="UTF-8"?>
<svg id="_圖層_2" data-name="圖層 2" xmlns="http://www.w3.org/2000/svg" viewBox="0 0 22.68 18.74">
  <defs>
    <style>
      .cls-1 {
        fill: #fff;
      }
    </style>
  </defs>
  <g id="_圖層_1-2" data-name="圖層 1">
    <g id="_46_Open_File_Document_Folder" data-name=" 46 Open File Document Folder">
      <path class="cls-1" d="M22.64,8.74l-1.5,7.5c-.29,1.46-1.57,2.51-3.06,2.51H3.12c-1.73,0-3.12-1.4-3.12-3.12V3.12C0,1.4,1.4,0,3.12,0h4.16c.2,0,.4.06.57.18l2.86,1.91h5.93c1.73,0,3.12,1.4,3.12,3.12h-2.08c0-.58-.47-1.04-1.04-1.04h-6.25c-.2,0-.4-.06-.57-.18l-2.86-1.91h-3.85c-.58,0-1.04.47-1.04,1.04v12.49c0,.58.47,1.04,1.04,1.04h.19l1.58-7.9c.29-1.46,1.57-2.51,3.06-2.51h12.64c.62,0,1.22.28,1.61.76.39.48.55,1.12.43,1.73h0Z"/>
    </g>
  </g>
</svg>