<svg xmlns="http://www.w3.org/2000/svg" width="15.307" height="14.617" viewBox="0 0 15.307 14.617">
  <path id="Path_525" data-name="Path 525" d="M-3221.138,3074.929h2.9c.976,0,1.742,0,2.357.05a4.207,4.207,0,0,1,1.613.4,4.093,4.093,0,0,1,1.789,1.789,4.206,4.206,0,0,1,.4,1.613c.05.615.05,1.381.05,2.357v.972a8.8,8.8,0,0,1-.165,2.34,4.1,4.1,0,0,1-2.777,2.777,8.844,8.844,0,0,1-2.34.165h-.538a3.03,3.03,0,0,0-1.723.552l-.035.025-1.859,1.328a1.318,1.318,0,0,1-1.99-1.562.25.25,0,0,0-.232-.343h-.429a3.219,3.219,0,0,1-3.219-3.219v-3.035c0-.976,0-1.742.051-2.357a4.224,4.224,0,0,1,.4-1.613,4.1,4.1,0,0,1,1.79-1.789,4.2,4.2,0,0,1,1.612-.4c.616-.05,1.381-.05,2.358-.05Zm-2.271,1.114a3.2,3.2,0,0,0-1.215.283,3.03,3.03,0,0,0-1.322,1.323,3.185,3.185,0,0,0-.283,1.215c-.046.567-.047,1.289-.047,2.294v3.011a2.151,2.151,0,0,0,2.151,2.151h.429a1.318,1.318,0,0,1,1.224,1.807.25.25,0,0,0,.377.3l1.9-1.357a4.093,4.093,0,0,1,2.332-.747h.441a8.583,8.583,0,0,0,2.144-.122,3.027,3.027,0,0,0,2.052-2.052,8.592,8.592,0,0,0,.122-2.145v-.843c0-1,0-1.727-.046-2.294a3.185,3.185,0,0,0-.283-1.215,3.032,3.032,0,0,0-1.323-1.323,3.189,3.189,0,0,0-1.215-.283c-.567-.046-1.289-.046-2.294-.046h-2.848c-1.006,0-1.728,0-2.295.046Z" transform="translate(3227.344 -3074.929)" fill="#717071" fill-rule="evenodd"/>
</svg>
