<?xml version="1.0" encoding="UTF-8"?>
<svg id="_圖層_2" data-name="圖層 2" xmlns="http://www.w3.org/2000/svg" viewBox="0 0 27.47 25.36">
  <defs>
    <style>
      .cls-1 {
        fill: #fff;
      }
    </style>
  </defs>
  <g id="_圖層_1-2" data-name="圖層 1">
    <g id="Layer_2" data-name="Layer 2">
      <path class="cls-1" d="M19.71,0H7.76C3.48,0,0,3.48,0,7.76v9.84c0,4.28,3.48,7.75,7.76,7.76h11.95c4.28,0,7.75-3.48,7.76-7.76V7.76C27.47,3.48,24,0,19.71,0h0ZM7.76,2.11h11.95c2.24,0,4.26,1.33,5.16,3.37l-7.91,5.27c-1.95,1.31-4.5,1.31-6.45,0L2.6,5.49c.9-2.05,2.92-3.37,5.16-3.37h0ZM25.36,7.76v9.84c0,3.12-2.53,5.64-5.65,5.65H7.76c-3.12,0-5.64-2.53-5.65-5.65V7.71l7.22,4.81c2.66,1.78,6.14,1.78,8.8,0l7.23-4.81v.05Z"/>
    </g>
  </g>
</svg>