<svg xmlns="http://www.w3.org/2000/svg" width="18.316" height="18.316" viewBox="0 0 18.316 18.316">
  <g id="Group_71" data-name="Group 71" transform="translate(-76.026 -551.025)">
    <g id="Group_27" data-name="Group 27">
      <path id="Path_15" data-name="Path 15" d="M90.081,569.341H80.286a4.265,4.265,0,0,1-4.26-4.261v-9.794a4.265,4.265,0,0,1,4.26-4.261h9.795a4.266,4.266,0,0,1,4.261,4.261v9.794A4.266,4.266,0,0,1,90.081,569.341Zm-9.795-17.192a3.14,3.14,0,0,0-3.136,3.137v9.794a3.14,3.14,0,0,0,3.136,3.137h9.795a3.14,3.14,0,0,0,3.136-3.137v-9.794a3.14,3.14,0,0,0-3.136-3.137Z" fill="#9e9e9f"/>
    </g>
    <g id="Group_28" data-name="Group 28">
      <rect id="Rectangle_17" data-name="Rectangle 17" width="17.192" height="1.124" transform="translate(76.588 557.386)" fill="#9e9e9f"/>
    </g>
    <g id="Group_29" data-name="Group 29">
      <rect id="Rectangle_18" data-name="Rectangle 18" width="7.111" height="1.124" transform="matrix(0.447, -0.895, 0.895, 0.447, 79.844, 557.698)" fill="#9e9e9f"/>
    </g>
    <g id="Group_30" data-name="Group 30">
      <rect id="Rectangle_19" data-name="Rectangle 19" width="7.111" height="1.124" transform="matrix(0.447, -0.895, 0.895, 0.447, 86.341, 557.698)" fill="#9e9e9f"/>
    </g>
    <g id="Group_31" data-name="Group 31">
      <path id="Path_16" data-name="Path 16" d="M83.686,566.272a1.158,1.158,0,0,1-1.153-1.155v-3.909a1.153,1.153,0,0,1,1.729-1l3.387,1.956a1.153,1.153,0,0,1,0,2l-3.387,1.955A1.15,1.15,0,0,1,83.686,566.272Zm.014-5.09-.043,3.935,3.429-1.929v-.051Z" fill="#9e9e9f"/>
    </g>
  </g>
</svg>
