<svg width="18" height="14" viewBox="0 0 18 14" fill="none" xmlns="http://www.w3.org/2000/svg">
<path d="M2.39641 14H15.6036C17.1992 14 18 13.208 18 11.6419V2.35815C18 0.792003 17.1992 0 15.6036 0H2.39641C0.806773 0 0 0.786048 0 2.35815V11.6419C0 13.214 0.806773 14 2.39641 14ZM12.6693 6.97916C12.3287 6.67546 11.9343 6.51467 11.5279 6.51467C11.1215 6.51467 10.7271 6.65759 10.3745 6.9732L6.92629 10.0459L5.51594 8.77159C5.19323 8.49171 4.85259 8.33688 4.48805 8.33688C4.15339 8.33688 3.8247 8.4798 3.51394 8.75968L1.23108 10.8022V2.41769C1.23108 1.62569 1.65538 1.22671 2.42032 1.22671H15.5797C16.3327 1.22671 16.7689 1.63165 16.7689 2.41769V10.8082L12.6693 6.97916ZM5.68327 7.06253C6.66932 7.06253 7.4761 6.25861 7.4761 5.2701C7.4761 4.28158 6.66932 3.47767 5.68327 3.47767C4.69721 3.47767 3.88446 4.29349 3.88446 5.2701C3.88446 6.2467 4.69123 7.06253 5.68327 7.06253Z" fill="#A5A6A8"/>
</svg>
