<svg width="14" height="17" viewBox="0 0 14 17" fill="none" xmlns="http://www.w3.org/2000/svg">
<path d="M0.711864 -9.14602e-05C1.10501 -9.14602e-05 1.42373 0.290415 1.42373 0.648767L3.05691 0.351055C4.62351 0.0654624 6.24742 0.201359 7.73075 0.742187L7.9241 0.812661C9.40582 1.35291 11.0367 1.4538 12.585 1.10099C13.3038 0.937208 14 1.43271 14 2.10801V8.48153C14 9.03894 13.5838 9.52481 12.9905 9.66004L12.787 9.70641C11.1074 10.0891 9.33824 9.9797 7.73075 9.39366C6.24742 8.85277 4.62351 8.71694 3.05691 9.00252L1.42373 9.30022V16.3511C1.42373 16.7095 1.10501 17 0.711864 17C0.318716 17 0 16.7095 0 16.3511V0.648767C0 0.290415 0.318716 -9.14602e-05 0.711864 -9.14602e-05Z" fill="#FE7B82"/>
</svg>
