<svg xmlns="http://www.w3.org/2000/svg" width="19.953" height="18.316" viewBox="0 0 19.953 18.316">
  <g id="Group_69" data-name="Group 69" transform="translate(-179.612 -551.025)">
    <g id="Group_62" data-name="Group 62">
      <path id="Path_36" data-name="Path 36" d="M192.943,569.341h-6.311a7.019,7.019,0,1,1,0-14.038H197.7a.589.589,0,0,1,0,1.178H186.632a5.841,5.841,0,1,0,0,11.683h6.311a.589.589,0,1,1,0,1.177Z" fill="#9e9e9f"/>
    </g>
    <g id="Group_63" data-name="Group 63">
      <path id="Path_37" data-name="Path 37" d="M194.587,560.98a.589.589,0,0,1-.423-1l3.979-4.123-3.964-3.822a.589.589,0,1,1,.817-.848l4.388,4.231a.587.587,0,0,1,.015.833l-4.388,4.547A.584.584,0,0,1,194.587,560.98Z" fill="#9e9e9f"/>
    </g>
  </g>
</svg>
