<svg xmlns="http://www.w3.org/2000/svg" width="17.55" height="14.972" viewBox="0 0 17.55 14.972">
  <g id="Group_72" data-name="Group 72" transform="translate(-24.206 -552.697)">
    <g id="Group_37" data-name="Group 37">
      <path id="Path_20" data-name="Path 20" d="M41.189,566.2H24.773a.568.568,0,0,1,0-1.135H41.189a.568.568,0,0,1,0,1.135Z" fill="#9e9e9f"/>
    </g>
    <g id="Group_38" data-name="Group 38">
      <path id="Path_21" data-name="Path 21" d="M41.189,560.75H24.773a.567.567,0,1,1,0-1.134H41.189a.567.567,0,1,1,0,1.134Z" fill="#9e9e9f"/>
    </g>
    <g id="Group_39" data-name="Group 39">
      <path id="Path_22" data-name="Path 22" d="M41.189,555.306H24.773a.568.568,0,0,1,0-1.135H41.189a.568.568,0,0,1,0,1.135Z" fill="#9e9e9f"/>
    </g>
    <g id="Group_40" data-name="Group 40">
      <rect id="Rectangle_20" data-name="Rectangle 20" width="4.083" height="4.083" rx="1.286" transform="translate(27.531 552.697)" fill="#9e9e9f"/>
    </g>
    <g id="Group_41" data-name="Group 41">
      <rect id="Rectangle_21" data-name="Rectangle 21" width="4.083" height="4.083" rx="1.286" transform="translate(32.981 558.142)" fill="#9e9e9f"/>
    </g>
    <g id="Group_42" data-name="Group 42">
      <rect id="Rectangle_22" data-name="Rectangle 22" width="4.083" height="4.083" rx="1.286" transform="translate(27.531 563.586)" fill="#9e9e9f"/>
    </g>
  </g>
</svg>
