<?xml version="1.0" encoding="UTF-8"?>
<svg id="_圖層_2" data-name="圖層 2" xmlns="http://www.w3.org/2000/svg" viewBox="0 0 19.7 23.91">
  <defs>
    <style>
      .cls-1 {
        fill: #9d9d9e;
      }
    </style>
  </defs>
  <g id="_圖層_1-2" data-name="圖層 1">
    <path class="cls-1" d="M1.89,23.91h15.93c1.04,0,1.89-.85,1.89-1.89v-4.61c0-3.12-2.53-5.66-5.66-5.66h-.37c2.9-2.11,3.54-6.18,1.43-9.08C12.99-.23,8.93-.87,6.02,1.25c-2.9,2.11-3.54,6.18-1.43,9.08.4.55.88,1.03,1.43,1.43h-.37c-3.12,0-5.66,2.53-5.66,5.66v4.61c0,1.04.85,1.89,1.89,1.89ZM4.61,6.51c0-2.89,2.35-5.24,5.24-5.24s5.24,2.35,5.24,5.24-2.35,5.24-5.24,5.24c-2.89,0-5.24-2.35-5.24-5.24ZM1.26,17.41c0-2.43,1.97-4.4,4.4-4.4h8.38c2.43,0,4.4,1.97,4.4,4.4v4.61c0,.35-.28.63-.63.63H1.89c-.35,0-.63-.28-.63-.63v-4.61Z"/>
  </g>
</svg>