<?xml version="1.0" encoding="UTF-8"?>
<svg id="_圖層_2" data-name="圖層 2" xmlns="http://www.w3.org/2000/svg" viewBox="0 0 22.68 23.02">
  <defs>
    <style>
      .cls-1 {
        fill: #fff;
      }
    </style>
  </defs>
  <g id="_圖層_1-2" data-name="圖層 1">
    <g>
      <path class="cls-1" d="M1.64,10.6c-.28-.28-.28-.73,0-1.02l5.44-5.44c.64-.64,1.63-.81,2.45-.42l4.29,2.02c.27.13.6.07.81-.14L20.01.21c.28-.28.74-.28,1.02,0,.28.28.28.73,0,1.02l-5.39,5.39c-.64.64-1.63.81-2.45.42l-4.28-2.02c-.27-.13-.6-.07-.82.14l-5.43,5.44c-.14.14-.32.21-.51.21s-.37-.06-.51-.21Z"/>
      <g>
        <path class="cls-1" d="M10.44,12.65v8.93c0,.8-.65,1.44-1.44,1.44h-1.44c-.79,0-1.44-.64-1.44-1.44v-8.93c0-.79.65-1.44,1.44-1.44h1.44c.79,0,1.44.65,1.44,1.44Z"/>
        <path class="cls-1" d="M22.68,7.6v13.98c0,.8-.65,1.44-1.44,1.44h-1.44c-.79,0-1.44-.64-1.44-1.44V7.6c0-.79.65-1.44,1.44-1.44h1.44c.79,0,1.44.65,1.44,1.44Z"/>
        <path class="cls-1" d="M4.32,19.09v2.49c0,.8-.65,1.44-1.44,1.44h-1.44c-.79,0-1.44-.64-1.44-1.44v-2.49c0-.79.65-1.44,1.44-1.44h1.44c.79,0,1.44.65,1.44,1.44Z"/>
        <path class="cls-1" d="M16.56,15.16v6.42c0,.8-.65,1.44-1.44,1.44h-1.44c-.79,0-1.44-.64-1.44-1.44v-6.42c0-.79.65-1.44,1.44-1.44h1.44c.79,0,1.44.65,1.44,1.44Z"/>
      </g>
    </g>
  </g>
</svg>