<?xml version="1.0" encoding="UTF-8"?>
<svg id="_圖層_2" data-name="圖層 2" xmlns="http://www.w3.org/2000/svg" viewBox="0 0 26.4 26.4">
  <defs>
    <style>
      .cls-1 {
        fill: #fff;
      }
    </style>
  </defs>
  <g id="_圖層_1-2" data-name="圖層 1">
    <g id="Layer_2" data-name="Layer 2">
      <path class="cls-1" d="M3.15,26.4h11.7c1.74,0,3.15-1.41,3.15-3.15V7.95c0-1.74-1.41-3.15-3.15-3.15H3.15c-1.74,0-3.15,1.41-3.15,3.15v15.3c0,1.74,1.41,3.15,3.15,3.15ZM2.4,7.95c0-.41.34-.75.75-.75h11.7c.41,0,.75.34.75.75v15.3c0,.41-.34.75-.75.75H3.15c-.41,0-.75-.34-.75-.75V7.95Z"/>
      <path class="cls-1" d="M23.24,0h-11.69c-1.27,0-2.41.76-2.91,1.93-.26.61.03,1.31.64,1.57.61.26,1.31-.03,1.57-.64.12-.28.39-.47.69-.47h11.69c.42,0,.76.34.76.76v15.29c0,.42-.34.76-.76.76h-2.84c-.66,0-1.2.54-1.2,1.2s.54,1.2,1.2,1.2h2.84c1.74,0,3.15-1.41,3.16-3.16V3.16c0-1.74-1.41-3.15-3.16-3.16h0Z"/>
    </g>
  </g>
</svg>