<?xml version="1.0" encoding="UTF-8"?>
<svg id="_圖層_2" data-name="圖層 2" xmlns="http://www.w3.org/2000/svg" viewBox="0 0 19.82 23.75">
  <defs>
    <style>
      .cls-1 {
        fill: #fff;
      }
    </style>
  </defs>
  <g id="_圖層_1-2" data-name="圖層 1">
    <g>
      <path class="cls-1" d="M9.76,11.44c1.57,0,2.93-.56,4.04-1.68,1.11-1.11,1.68-2.47,1.68-4.04s-.56-2.93-1.68-4.04c-1.11-1.11-2.47-1.68-4.04-1.68s-2.93.56-4.04,1.68c-1.11,1.11-1.68,2.47-1.68,4.04s.56,2.93,1.68,4.04c1.11,1.11,2.47,1.68,4.04,1.68Z"/>
      <path class="cls-1" d="M19.77,18.26c-.03-.46-.1-.97-.19-1.5-.1-.54-.22-1.04-.37-1.51-.15-.48-.36-.95-.62-1.41-.27-.47-.58-.88-.94-1.22-.37-.35-.82-.64-1.34-.84-.52-.21-1.1-.31-1.72-.31-.24,0-.48.1-.93.39-.28.18-.6.39-.97.62-.31.2-.73.38-1.25.55-.51.16-1.02.25-1.53.25s-1.02-.08-1.53-.25c-.52-.17-.94-.35-1.25-.55-.36-.23-.69-.44-.97-.62-.45-.29-.69-.39-.93-.39-.62,0-1.19.1-1.72.31-.52.21-.97.49-1.34.84-.35.34-.67.75-.94,1.22-.26.45-.47.93-.62,1.41-.15.46-.27.97-.37,1.51-.1.53-.16,1.04-.19,1.5-.03.45-.05.93-.05,1.4,0,1.24.39,2.24,1.17,2.98.77.73,1.78,1.1,3.02,1.1h11.44c1.24,0,2.25-.37,3.02-1.1.78-.74,1.17-1.74,1.17-2.98,0-.48-.02-.95-.05-1.4Z"/>
    </g>
  </g>
</svg>