<?xml version="1.0" encoding="UTF-8"?>
<svg id="_圖層_2" data-name="圖層 2" xmlns="http://www.w3.org/2000/svg" viewBox="0 0 22.13 19.18">
  <defs>
    <style>
      .cls-1 {
        fill: #fff;
      }
    </style>
  </defs>
  <g id="_圖層_1-2" data-name="圖層 1">
    <g id="Layer_1" data-name="Layer 1">
      <path class="cls-1" d="M20.2,0H1.93C.87,0,0,.87,0,1.93v15.32c0,1.06.87,1.93,1.93,1.93h18.27c1.06,0,1.93-.87,1.93-1.93V1.93c0-1.06-.87-1.93-1.93-1.93h0ZM20.66,1.93v2.5h-1.93l.98-2.95h.49c.25,0,.45.2.45.45ZM3.97,4.43l.98-2.95h2.13l-.98,2.95h-2.13ZM8.65,1.48h2.13l-.98,2.95h-2.13l.98-2.95ZM12.33,1.48h2.13l-.98,2.95h-2.13l.98-2.95ZM16.02,1.48h2.13l-.98,2.95h-2.13l.98-2.95ZM1.93,1.48h1.47l-.98,2.95h-.94V1.93c0-.25.2-.45.45-.45ZM20.2,17.7H1.93c-.25,0-.45-.2-.45-.45V5.9h19.18v11.35c0,.25-.2.45-.45.45Z"/>
      <path class="cls-1" d="M8.67,15.49c-.12,0-.25-.03-.36-.09-.23-.13-.38-.38-.38-.64v-5.9c0-.27.14-.51.38-.64s.52-.12.75.02l4.8,2.95c.22.14.35.37.35.63s-.13.49-.35.63l-4.8,2.95c-.12.07-.25.11-.39.11h0ZM9.41,10.17v3.26l2.65-1.63-2.65-1.63Z"/>
    </g>
  </g>
</svg>