<svg xmlns="http://www.w3.org/2000/svg" width="15.817" height="18.719" viewBox="0 0 15.817 18.719">
  <path id="Path_39" data-name="Path 39" d="M276.531,163.036l-1.088-1.108a.82.82,0,0,1-.236-.577V158a5.989,5.989,0,0,0-4.275-5.731,1.736,1.736,0,1,0-3.406,0,5.987,5.987,0,0,0-4.274,5.73v3.35a.82.82,0,0,1-.236.577l-1.088,1.108a2.1,2.1,0,0,0,1.5,3.575h3.206a2.614,2.614,0,0,0,5.191,0h3.206a2.1,2.1,0,0,0,1.5-3.575Zm-7.759-11.1a.457.457,0,1,1,.914,0,.45.45,0,0,1-.013.108c-.146-.01-.294-.016-.444-.016s-.3.006-.443.016a.442.442,0,0,1-.014-.108Zm.457,15.7a1.337,1.337,0,0,1-1.3-1.024h2.6a1.337,1.337,0,0,1-1.3,1.024Zm6.56-2.808a.806.806,0,0,1-.758.5h-11.6a.823.823,0,0,1-.587-1.4l1.088-1.108a2.09,2.09,0,0,0,.6-1.473V158a4.7,4.7,0,1,1,9.4,0v3.35a2.086,2.086,0,0,0,.6,1.473l1.088,1.108a.808.808,0,0,1,.171.895Z" transform="translate(-261.321 -150.195)"/>
</svg>
