<?xml version="1.0" encoding="UTF-8"?>
<svg id="_圖層_2" data-name="圖層 2" xmlns="http://www.w3.org/2000/svg" viewBox="0 0 22.68 18.51">
  <defs>
    <style>
      .cls-1 {
        fill: #fff;
      }
    </style>
  </defs>
  <g id="_圖層_1-2" data-name="圖層 1">
    <g>
      <path class="cls-1" d="M9.26,17.12c-.03-.08-.04-.14-.03-.2,0-.05-.02-.1-.1-.13s-.12-.06-.12-.08-.06-.03-.17-.04c-.11,0-.17-.01-.17-.01h-4.51c-.64,0-1.18-.23-1.63-.68-.45-.45-.68-1-.68-1.63V4.16c0-.64.23-1.18.68-1.63.45-.45,1-.68,1.63-.68h4.63c.13,0,.22-.03.3-.09.07-.06.12-.16.14-.28.02-.13.04-.24.04-.34,0-.1,0-.23,0-.38,0-.15-.01-.25-.01-.29,0-.13-.05-.23-.14-.33-.09-.09-.2-.14-.33-.14h-4.63c-1.15,0-2.13.41-2.94,1.22-.81.81-1.22,1.8-1.22,2.94v10.18c0,1.15.41,2.13,1.22,2.94.81.82,1.8,1.22,2.94,1.22h4.63c.13,0,.22-.03.3-.09.07-.06.12-.16.14-.28.02-.13.04-.24.04-.34,0-.1,0-.23,0-.38,0-.15-.01-.25-.01-.29Z"/>
      <path class="cls-1" d="M22.4,8.61L14.53.74c-.18-.18-.4-.27-.65-.27s-.47.09-.65.27c-.18.18-.27.4-.27.65v4.17h-6.48c-.25,0-.47.09-.65.27-.18.18-.27.4-.27.65v5.55c0,.25.09.47.27.65.18.18.4.27.65.27h6.48v4.17c0,.25.09.47.27.65.18.18.4.27.65.27s.47-.09.65-.27l7.87-7.87c.18-.18.27-.4.27-.65,0-.25-.09-.47-.27-.65Z"/>
    </g>
  </g>
</svg>