<?xml version="1.0" encoding="UTF-8"?>
<svg id="_圖層_2" data-name="圖層 2" xmlns="http://www.w3.org/2000/svg" viewBox="0 0 29.1 29.1">
  <defs>
    <style>
      .cls-1 {
        fill: #fff;
        fill-rule: evenodd;
      }
    </style>
  </defs>
  <g id="_圖層_1-2" data-name="圖層 1">
    <path class="cls-1" d="M10.41,17.19l6.26-6.26c.41-.41,1.08-.41,1.5,0,.41.41.41,1.08,0,1.5l-6.26,6.26,4.91,9.28c.4.75,1.2,1.19,2.05,1.12.85-.07,1.57-.64,1.84-1.44,1.86-5.59,6.54-19.62,8.29-24.86.25-.76.06-1.6-.51-2.17-.57-.57-1.41-.77-2.17-.51L1.45,8.4c-.8.27-1.37.99-1.44,1.84-.07.85.37,1.65,1.12,2.05l9.28,4.91Z"/>
  </g>
</svg>