<svg width="16" height="19" viewBox="0 0 16 19" fill="none" xmlns="http://www.w3.org/2000/svg">
<path d="M15.2086 12.85L14.1186 11.74C13.9686 11.59 13.8786 11.38 13.8786 11.16V7.81C13.8786 5.11 12.0686 2.81 9.59864 2.08C9.61864 1.97 9.62864 1.86 9.62864 1.74C9.62864 0.78 8.84864 0 7.88864 0C6.92864 0 6.14864 0.78 6.14864 1.74C6.14864 1.86 6.15864 1.97 6.17864 2.08C3.73864 2.82 1.92864 5.11 1.92864 7.81V11.16C1.92864 11.38 1.84864 11.58 1.68864 11.74L0.598644 12.85C-0.00135624 13.46 -0.161356 14.34 0.168644 15.13C0.498644 15.92 1.24864 16.42 2.10864 16.42H5.31864C5.46864 17.72 6.57864 18.72 7.91864 18.72C9.25864 18.72 10.3586 17.71 10.5186 16.42H13.7286C14.5886 16.42 15.3386 15.93 15.6686 15.13C15.9986 14.33 15.8386 13.46 15.2286 12.84L15.2086 12.85ZM7.44864 1.74C7.44864 1.49 7.65864 1.28 7.90864 1.28C8.15864 1.28 8.36864 1.49 8.36864 1.74C8.36864 1.78 8.36864 1.81 8.35864 1.85C8.20864 1.84 8.06864 1.83 7.91864 1.83C7.76864 1.83 7.61864 1.83 7.47864 1.85C7.47864 1.82 7.46864 1.78 7.46864 1.74H7.44864ZM7.90864 17.45C7.27864 17.45 6.74864 17.01 6.60864 16.43H9.20864C9.06864 17.02 8.53864 17.45 7.90864 17.45ZM14.4686 14.64C14.4186 14.76 14.2186 15.14 13.7086 15.14H2.10864C1.59864 15.14 1.39864 14.75 1.34864 14.64C1.29864 14.52 1.16864 14.11 1.51864 13.75L2.60864 12.64C2.99864 12.24 3.20864 11.72 3.20864 11.17V7.82C3.20864 5.23 5.31864 3.12 7.90864 3.12C10.4986 3.12 12.6086 5.23 12.6086 7.82V11.17C12.6086 11.72 12.8186 12.25 13.2086 12.64L14.2986 13.75C14.6586 14.11 14.5186 14.53 14.4686 14.64Z" fill="#040000"/>
<path d="M7.09434 12C6.91321 12 6.73207 11.9104 6.59622 11.7759L5.10189 10.2969C4.96604 10.1625 4.96604 9.93837 5.10189 9.80391C5.23774 9.66946 5.46415 9.66946 5.6 9.80391L7.09434 11.2829C7.09434 11.2829 7.13963 11.2829 7.18491 11.2829L10.4 8.10084C10.5359 7.96639 10.7623 7.96639 10.8981 8.10084C11.034 8.23529 11.034 8.45939 10.8981 8.59384L7.68303 11.7759C7.54718 11.9104 7.36604 12 7.18491 12H7.09434Z" fill="#040000"/>
<path d="M10.2912 7.80471C10.5433 7.64066 10.8884 7.6679 11.1096 7.88674C11.3322 8.10726 11.3599 8.45338 11.1926 8.7051L11.1096 8.80569L7.89471 11.9883C7.71645 12.1647 7.46236 12.2989 7.18475 12.2989H7.09491C6.8518 12.2989 6.62701 12.1959 6.45526 12.0518L6.38495 11.9883L4.89081 10.5088C4.6367 10.257 4.63662 9.84164 4.89081 9.58987C5.14356 9.33971 5.55895 9.33971 5.81171 9.58987L7.13983 10.9033L10.1896 7.88674L10.2912 7.80471ZM10.8986 8.09963C10.7629 7.96529 10.5365 7.9655 10.4006 8.09963L7.18475 11.2823H7.09491L5.59979 9.80276C5.46391 9.6686 5.23749 9.66841 5.10174 9.80276L5.0578 9.85745C4.9687 9.99218 4.98305 10.1783 5.10174 10.2959L6.59686 11.7754C6.71564 11.8928 6.86892 11.9761 7.02655 11.9951L7.09491 11.999H7.18475L7.25311 11.9951C7.36588 11.9815 7.47615 11.9345 7.57342 11.8662L7.6828 11.7754L10.8986 8.5928C11.0173 8.47513 11.0317 8.28905 10.9426 8.15432L10.8986 8.09963Z" fill="#040000"/>
</svg>
