<svg width="15" height="15" viewBox="0 0 15 15" fill="none" xmlns="http://www.w3.org/2000/svg">
<path d="M11.6748 5.62225V3.2786C11.6748 1.72558 9.53407 0 7.47142 0C5.40878 0 3.26488 1.72872 3.26488 3.2786V5.62225C3.26488 6.64505 3.73054 8.71889 5.03688 9.76992L0.933464 11.712C0.933464 11.712 -0.000976562 12.1293 -0.000976562 12.6501V14.0556C-0.000976562 14.5733 0.417803 14.9937 0.933464 14.9937H9.80596V14.0556H0.936589V13.105C0.936589 12.7316 1.21473 12.6156 1.32724 12.5654L5.42753 10.6233C5.7213 10.4884 5.92444 10.2092 5.96507 9.88601C6.00569 9.56285 5.87443 9.24284 5.62129 9.04204C4.64935 8.26082 4.19932 6.54152 4.19932 5.62539V3.28174C4.19932 2.30287 5.89944 0.941226 7.47142 0.941226C9.04341 0.941226 10.7404 2.28404 10.7404 3.28174V5.62539C10.7404 6.52897 10.3654 8.25455 9.3653 9.04518C9.10904 9.24597 8.97778 9.56599 9.01528 9.89228C9.05278 10.2154 9.25592 10.4978 9.55282 10.6327L9.81846 10.7551L10.2279 9.99582L9.94347 9.77934C11.2373 8.75654 11.6748 6.74859 11.6748 5.62539V5.62225ZM13.5062 12.876L14.8282 11.5488C15.0094 11.3669 15.0094 11.0688 14.8282 10.8868C14.6469 10.7049 14.35 10.7049 14.1688 10.8868L12.8468 12.214L11.5248 10.8868C11.3436 10.7049 11.0467 10.7049 10.8654 10.8868C10.6841 11.0688 10.6841 11.3669 10.8654 11.5488L12.1874 12.876L10.8654 14.2031C10.6841 14.3851 10.6841 14.6831 10.8654 14.8651C11.0467 15.0471 11.3436 15.0471 11.5248 14.8651L12.8468 13.538L14.1688 14.8651C14.35 15.0471 14.6469 15.0471 14.8282 14.8651C15.0094 14.6831 15.0094 14.3851 14.8282 14.2031L13.5093 12.8791L13.5062 12.876Z" fill="black"/>
</svg>
