<?xml version="1.0" encoding="UTF-8"?>
<svg id="_圖層_2" data-name="圖層 2" xmlns="http://www.w3.org/2000/svg" viewBox="0 0 23.74 24.28">
  <defs>
    <style>
      .cls-1 {
        fill: #fff;
      }
    </style>
  </defs>
  <g id="_圖層_1-2" data-name="圖層 1">
    <g>
      <path class="cls-1" d="M13.87,6.48c-2.94-.62-5.24-2.92-5.86-5.86-.08-.36-.39-.62-.76-.62s-.69.26-.76.62c-.62,2.94-2.92,5.24-5.86,5.86-.36.08-.62.39-.62.76s.26.69.62.76c2.94.62,5.24,2.92,5.86,5.86.08.36.39.62.76.62s.69-.26.76-.62c.62-2.94,2.92-5.24,5.86-5.86.36-.08.62-.39.62-.76,0-.37-.26-.69-.62-.76Z"/>
      <path class="cls-1" d="M12.58,19.37c-1.39-.29-2.47-1.37-2.76-2.76-.08-.36-.39-.62-.76-.62s-.69.26-.76.62c-.29,1.39-1.37,2.47-2.76,2.76-.36.08-.62.39-.62.76s.26.69.62.76c1.39.29,2.47,1.37,2.76,2.76.08.36.39.62.76.62s.69-.26.76-.62c.29-1.39,1.37-2.47,2.76-2.76.36-.08.62-.39.62-.76s-.26-.69-.62-.76Z"/>
      <path class="cls-1" d="M23.12,12.15c-1.87-.39-3.34-1.86-3.73-3.73-.08-.36-.39-.62-.76-.62s-.69.26-.76.62c-.39,1.87-1.86,3.34-3.73,3.73-.36.08-.62.39-.62.76s.26.69.62.76c1.87.39,3.34,1.86,3.73,3.73.08.36.39.62.76.62s.69-.26.76-.62c.39-1.87,1.86-3.34,3.73-3.73.36-.08.62-.39.62-.76s-.26-.69-.62-.76Z"/>
    </g>
  </g>
</svg>