<svg width="15" height="13" viewBox="0 0 15 13" fill="none" xmlns="http://www.w3.org/2000/svg">
<path d="M2.22062 8.64003C1.21471 7.76987 0.468606 6.62903 0.151202 5.34527C-0.0819002 4.40265 0.0240009 3.87906 0.0240009 3.87906C0.220203 1.76982 1.78082 0 3.94774 0C5.29862 0 6.4255 0.676397 7.11102 1.70393C7.11178 1.70507 7.11046 1.70645 7.10929 1.70572C7.10872 1.70537 7.10797 1.70552 7.10758 1.70606L5.8508 3.46557C5.41107 4.08118 5.78776 4.94325 6.53823 5.0388L7.01943 5.10007C7.8747 5.20897 8.2005 6.27674 7.55172 6.84456L6.84198 7.46572C6.33085 7.91307 6.40488 8.72893 6.98819 9.07697L7.64005 9.46592C8.04788 9.70927 8.22831 10.2059 8.07178 10.6543L7.73842 11.6092C7.50559 12.2761 6.67339 12.4979 6.13948 12.0353L2.22062 8.64003ZM14.849 5.34585C14.5316 6.62961 13.7854 7.77015 12.7795 8.64032L10.0212 10.9899C9.45683 11.4706 8.61945 10.897 8.86378 10.1971C8.97753 9.87129 8.84643 9.51039 8.55007 9.33354L7.9748 8.99024C7.39153 8.64217 7.31755 7.82633 7.82868 7.379L8.90289 6.4389C9.55174 5.87106 9.22586 4.8032 8.37053 4.69438L7.5823 4.5941C6.83181 4.49862 6.45505 3.63658 6.89472 3.02093L7.49722 2.17728C7.51936 2.14628 7.55261 2.12322 7.57028 2.08947C8.22459 0.848106 9.5383 0.000286405 11.0521 0.000286405C13.219 0.000286405 14.7797 1.77011 14.9759 3.87935C14.9759 3.87935 15.0821 4.40322 14.849 5.34585Z" fill="#FE7B82"/>
</svg>
