<?xml version="1.0" encoding="UTF-8"?>
<svg id="_圖層_2" data-name="圖層 2" xmlns="http://www.w3.org/2000/svg" viewBox="0 0 18.35 12.41">
  <defs>
    <style>
      .cls-1 {
        fill: #fff;
      }
    </style>
  </defs>
  <g id="_圖層_1-2" data-name="圖層 1">
    <g>
      <path class="cls-1" d="M17,0H1.35C.6,0,0,.6,0,1.35v9.72c0,.74.6,1.35,1.35,1.35h15.65c.74,0,1.35-.6,1.35-1.35V1.35c0-.74-.6-1.35-1.35-1.35ZM17.56,11.06c0,.31-.25.56-.56.56H1.35c-.31,0-.56-.25-.56-.56V1.35c0-.31.25-.56.56-.56h15.65c.31,0,.56.25.56.56v9.72Z"/>
      <path class="cls-1" d="M3.92,8.08h-1.82c-.22,0-.4.18-.4.4s.18.4.4.4h1.82c.22,0,.4-.18.4-.4s-.18-.4-.4-.4Z"/>
      <path class="cls-1" d="M7.46,8.08h-1.82c-.22,0-.4.18-.4.4s.18.4.4.4h1.82c.22,0,.4-.18.4-.4s-.18-.4-.4-.4Z"/>
      <path class="cls-1" d="M11,8.08h-1.82c-.22,0-.4.18-.4.4s.18.4.4.4h1.82c.22,0,.4-.18.4-.4s-.18-.4-.4-.4Z"/>
      <path class="cls-1" d="M14.54,8.08h-1.82c-.22,0-.4.18-.4.4s.18.4.4.4h1.82c.22,0,.4-.18.4-.4s-.18-.4-.4-.4Z"/>
      <path class="cls-1" d="M8.6,9.84H2.1c-.22,0-.4.18-.4.4s.18.4.4.4h6.49c.22,0,.4-.18.4-.4s-.18-.4-.4-.4Z"/>
      <path class="cls-1" d="M4.47,3.72h-2.37c-.22,0-.4.18-.4.4v1.71c0,.22.18.4.4.4h2.37c.22,0,.4-.18.4-.4v-1.71c0-.22-.18-.4-.4-.4ZM4.08,5.43h-1.58v-.92h1.58v.92h0Z"/>
      <path class="cls-1" d="M16.24,2.31h-4.29c-.22,0-.4.18-.4.4s.18.4.4.4h4.29c.22,0,.4-.18.4-.4s-.18-.4-.4-.4Z"/>
    </g>
  </g>
</svg>