<?xml version="1.0" encoding="UTF-8"?>
<svg id="_圖層_2" data-name="圖層 2" xmlns="http://www.w3.org/2000/svg" viewBox="0 0 25.62 27.73">
  <defs>
    <style>
      .cls-1 {
        fill: #fff;
      }
    </style>
  </defs>
  <g id="_圖層_1-2" data-name="圖層 1">
    <g id="Layer_2" data-name="Layer 2">
      <path class="cls-1" d="M24.04,9l-7.42-7.42c-2.1-2.1-5.51-2.1-7.62,0L1.58,9C.56,10.01,0,11.38,0,12.81v9.54c0,2.97,2.41,5.38,5.39,5.39h14.85c2.97,0,5.38-2.41,5.39-5.39v-9.54c0-1.43-.56-2.8-1.58-3.81ZM23.77,22.35c0,1.95-1.58,3.54-3.54,3.54H5.39c-1.95,0-3.54-1.58-3.54-3.54v-9.54c0-.94.37-1.84,1.04-2.5l7.42-7.42c1.38-1.38,3.62-1.38,5,0l7.42,7.42c.67.66,1.04,1.56,1.04,2.5v9.54Z"/>
    </g>
  </g>
</svg>