<?xml version="1.0" encoding="UTF-8"?>
<svg id="_圖層_2" data-name="圖層 2" xmlns="http://www.w3.org/2000/svg" viewBox="0 0 27.47 25.36">
  <defs>
    <style>
      .cls-1 {
        fill: #fff;
      }
    </style>
  </defs>
  <g id="_圖層_1-2" data-name="圖層 1">
    <g id="Layer_2" data-name="Layer 2">
      <path class="cls-1" d="M27.45,7.4C27.26,3.26,23.85,0,19.71,0H7.76C3.48,0,0,3.48,0,7.76v9.84c0,4.28,3.48,7.75,7.76,7.76h11.95c4.14,0,7.55-3.26,7.74-7.4h.02V7.4h-.02ZM19.71,23.24H7.76c-3.12,0-5.64-2.53-5.65-5.65V7.76c0-3.12,2.53-5.64,5.65-5.65h11.95c2.97,0,5.42,2.32,5.61,5.28h-7.36c-2.92,0-5.28,2.37-5.28,5.28s2.37,5.28,5.28,5.28h7.36c-.19,2.96-2.64,5.27-5.61,5.28ZM25.36,15.85h-7.4c-1.75,0-3.17-1.42-3.17-3.17s1.42-3.17,3.17-3.17h7.4v6.34Z"/>
      <circle class="cls-1" cx="17.96" cy="12.68" r="1.06"/>
    </g>
  </g>
</svg>