<svg xmlns="http://www.w3.org/2000/svg" width="18.317" height="18.316" viewBox="0 0 18.317 18.316">
  <g id="Group_68" data-name="Group 68" transform="translate(-232.632 -551.025)">
    <g id="Group_58" data-name="Group 58">
      <path id="Path_34" data-name="Path 34" d="M246.688,569.341h-9.795a4.266,4.266,0,0,1-4.261-4.261v-9.8a4.266,4.266,0,0,1,4.261-4.26h9.795a4.265,4.265,0,0,1,4.261,4.26v9.8A4.265,4.265,0,0,1,246.688,569.341Zm-9.795-17.192a3.14,3.14,0,0,0-3.136,3.136v9.8a3.14,3.14,0,0,0,3.136,3.137h9.795a3.14,3.14,0,0,0,3.137-3.137v-9.8a3.14,3.14,0,0,0-3.137-3.136Z" fill="#9e9e9f"/>
    </g>
    <g id="Group_59" data-name="Group 59">
      <path id="Path_35" data-name="Path 35" d="M250.949,563.4h-6.505a3.215,3.215,0,1,1,0-6.43h6.505Zm-6.505-5.3a2.09,2.09,0,1,0,0,4.181h5.381v-4.181Z" fill="#9e9e9f"/>
    </g>
    <g id="Group_60" data-name="Group 60">
      <circle id="Ellipse_8" data-name="Ellipse 8" cx="0.805" cy="0.805" r="0.805" transform="translate(243.715 559.378)" fill="#9e9e9f"/>
    </g>
  </g>
</svg>
