<svg width="14" height="14" viewBox="0 0 14 14" fill="none" xmlns="http://www.w3.org/2000/svg">
<g clip-path="url(#clip0_151_6223)">
<path d="M5.74956 6.40176H0.61296C0.273789 6.40176 0 6.12628 0 5.78502V0.61674C0 0.275477 0.273789 0 0.61296 0H5.74956C6.08873 0 6.36252 0.275477 6.36252 0.61674V5.78502C6.36252 6.12628 6.08873 6.40176 5.74956 6.40176ZM1.22592 5.16828H5.1366V1.23348H1.22592V5.16828Z" fill="black"/>
<path d="M5.74956 13.9994H0.61296C0.273789 13.9994 0 13.7239 0 13.3827V8.2144C0 7.87313 0.273789 7.59766 0.61296 7.59766H5.74956C6.08873 7.59766 6.36252 7.87313 6.36252 8.2144V13.3827C6.36252 13.7239 6.08873 13.9994 5.74956 13.9994ZM1.22592 12.7659H5.1366V8.83114H1.22592V12.7659Z" fill="black"/>
<path d="M13.3873 6.40176H8.25066C7.91148 6.40176 7.6377 6.12628 7.6377 5.78502V0.61674C7.6377 0.275477 7.91148 0 8.25066 0H13.3873C13.7264 0 14.0002 0.275477 14.0002 0.61674V5.78502C14.0002 6.12628 13.7264 6.40176 13.3873 6.40176ZM8.8677 5.16828H12.7784V1.23348H8.8677V5.16828Z" fill="black"/>
<path d="M10.8208 13.9992C9.06775 13.9992 7.6416 12.5643 7.6416 10.8004C7.6416 9.03651 9.06775 7.60156 10.8208 7.60156C12.5739 7.60156 14 9.03651 14 10.8004C14 12.5643 12.5739 13.9992 10.8208 13.9992ZM10.8208 8.83093C9.74201 8.83093 8.86752 9.71493 8.86752 10.7963C8.86752 11.8776 9.7461 12.7616 10.8208 12.7616C11.8955 12.7616 12.7741 11.8776 12.7741 10.7963C12.7741 9.71493 11.8955 8.83093 10.8208 8.83093Z" fill="black"/>
</g>
<defs>
<clipPath id="clip0_151_6223">
<rect width="14" height="14" fill="white"/>
</clipPath>
</defs>
</svg>
