<?xml version="1.0" encoding="UTF-8"?>
<svg id="_圖層_2" data-name="圖層 2" xmlns="http://www.w3.org/2000/svg" viewBox="0 0 18.01 19.59">
  <defs>
    <style>
      .cls-1 {
        fill: #9d9d9e;
      }
    </style>
  </defs>
  <g id="_圖層_1-2" data-name="圖層 1">
    <path class="cls-1" d="M15.32,6.64h-.25v-2.8c0-2.11-1.72-3.83-3.83-3.83h-4.45c-2.11,0-3.83,1.72-3.83,3.83v2.8h-.25c-1.49,0-2.7,1.21-2.7,2.7v7.56c0,1.49,1.21,2.7,2.7,2.7h12.62c1.49,0,2.7-1.21,2.7-2.7v-7.56c0-1.49-1.21-2.7-2.7-2.7h0ZM4.17,3.83c0-1.44,1.17-2.61,2.61-2.61h4.45c1.44,0,2.61,1.17,2.61,2.61v2.8H4.17v-2.8ZM16.79,16.89c0,.81-.66,1.47-1.47,1.47H2.7c-.81,0-1.47-.66-1.47-1.47v-7.56c0-.81.66-1.47,1.47-1.47h12.62c.81,0,1.47.66,1.47,1.47v7.56h0ZM9.01,10.01c-1.03,0-1.87.84-1.87,1.87,0,.82.53,1.51,1.26,1.77v1.95c0,.34.27.61.61.61s.61-.27.61-.61v-1.95c.73-.25,1.26-.95,1.26-1.77,0-1.03-.84-1.87-1.87-1.87ZM9.01,12.53c-.36,0-.65-.29-.65-.65s.29-.65.65-.65.65.29.65.65-.29.65-.65.65Z"/>
  </g>
</svg>