<svg xmlns="http://www.w3.org/2000/svg" width="15.49" height="18.931" viewBox="0 0 15.49 18.931">
  <g id="Group_73" data-name="Group 73" transform="translate(-301.167 -150.018)">
    <path id="Path_8" data-name="Path 8" d="M308.3,150.27a.861.861,0,0,1,1.217,0l3.442,3.442a.86.86,0,0,1-1.216,1.217l-1.974-1.973v9.109a.861.861,0,1,1-1.721,0v-9.109l-1.973,1.973a.861.861,0,0,1-1.217-1.217Z"/>
    <path id="Path_9" data-name="Path 9" d="M303.749,158.623a.861.861,0,0,0-.861.861v6.884a.86.86,0,0,0,.861.86h10.326a.86.86,0,0,0,.861-.86v-6.884a.861.861,0,0,0-.861-.861h-1.291a.861.861,0,0,1,0-1.721h1.291a2.582,2.582,0,0,1,2.582,2.582v6.884a2.583,2.583,0,0,1-2.582,2.581H303.749a2.581,2.581,0,0,1-2.582-2.581v-6.884a2.582,2.582,0,0,1,2.582-2.582h1.721a.861.861,0,0,1,0,1.721Z"/>
  </g>
</svg>
