<?xml version="1.0" encoding="UTF-8"?>
<svg id="_圖層_2" data-name="圖層 2" xmlns="http://www.w3.org/2000/svg" viewBox="0 0 22.68 21.37">
  <defs>
    <style>
      .cls-1 {
        fill: #fff;
        fill-rule: evenodd;
      }
    </style>
  </defs>
  <g id="_圖層_1-2" data-name="圖層 1">
    <path class="cls-1" d="M13.63,19.95c0-.78-.64-1.42-1.42-1.42h-1.74c-.38,0-.74.15-1,.42s-.42.63-.42,1c0,.78.64,1.42,1.42,1.42h1.74c.78,0,1.42-.64,1.42-1.42h0ZM2.98,16.29c.24.02.52.03.81.01.15.78.53,1.5,1.1,2.07.76.76,1.78,1.18,2.85,1.18h.54c-.02.13-.04.26-.04.4s.01.27.04.4h-.54c-1.28,0-2.51-.51-3.41-1.41-.72-.72-1.19-1.65-1.35-2.64h0ZM2.58,15.45c-.63-.11-1.22-.41-1.67-.86-.58-.58-.91-1.37-.91-2.19v-1.88c0-.82.33-1.61.91-2.19.58-.58,1.37-.91,2.19-.91h.21C3.63,3.27,7.1,0,11.34,0s7.71,3.27,8.04,7.42h.21c.82,0,1.61.33,2.19.91s.91,1.37.91,2.19v1.88c0,.82-.33,1.61-.91,2.19-.58.58-1.37.91-2.19.91h-.91c-.38,0-.69-.31-.69-.69v-6.74c0-3.67-2.98-6.65-6.65-6.65s-6.65,2.98-6.65,6.65v6.74c0,.27-.15.5-.38.61-.61.21-1.57.06-1.74.03h0Z"/>
  </g>
</svg>