<?xml version="1.0" encoding="UTF-8"?>
<svg id="_圖層_2" data-name="圖層 2" xmlns="http://www.w3.org/2000/svg" viewBox="0 0 24.99 20.34">
  <defs>
    <style>
      .cls-1 {
        fill: #907bff;
      }
    </style>
  </defs>
  <g id="_圖層_1-2" data-name="圖層 1">
    <path class="cls-1" d="M12.5,20.34c-4.77,0-6.19-1.18-6.43-1.42-.19-.19-.29-.47-.25-.74l.59-4.15c.4-2.71,2.72-4.73,5.46-4.74h1.23c2.74.01,5.06,2.03,5.46,4.74l.59,4.15c.04.27-.05.55-.25.74-.23.24-1.66,1.42-6.42,1.42h0ZM7.63,17.87c1.55.58,3.21.82,4.87.73,1.66.1,3.31-.15,4.87-.73l-.51-3.58c-.27-1.86-1.86-3.23-3.74-3.24h-1.23c-1.88,0-3.47,1.39-3.74,3.24l-.51,3.58Z"/>
    <path class="cls-1" d="M4.94,16.85c-3.53,0-4.6-1.28-4.78-1.53-.13-.19-.19-.42-.14-.65l.26-1.44c.45-2.58,2.9-4.3,5.48-3.86,1.32.23,2.48,1.01,3.2,2.14.26.41.13.95-.27,1.2-.41.26-.95.13-1.2-.27h0c-.89-1.4-2.74-1.81-4.13-.93-.71.45-1.2,1.19-1.35,2.02l-.17.96c.97.48,2.05.7,3.12.62.64,0,1.28-.05,1.91-.19.47-.12.94.16,1.06.62.12.47-.16.94-.62,1.06-.01,0-.03,0-.04.01-.76.16-1.53.24-2.3.23Z"/>
    <path class="cls-1" d="M4.94,8.72c-1.77,0-3.2-1.43-3.2-3.2s1.43-3.2,3.2-3.2,3.2,1.43,3.2,3.2c0,1.76-1.43,3.2-3.2,3.2ZM4.94,4.07c-.8,0-1.45.65-1.45,1.45s.65,1.45,1.45,1.45,1.45-.65,1.45-1.45c0-.8-.65-1.45-1.45-1.45Z"/>
    <path class="cls-1" d="M20.05,16.85c-.77.01-1.55-.07-2.3-.23-.47-.1-.77-.56-.68-1.03.1-.47.56-.77,1.03-.68.01,0,.03,0,.04.01.63.13,1.27.2,1.91.19,1.08.08,2.16-.14,3.12-.63l-.17-.95c-.25-1.44-1.5-2.49-2.95-2.49-1.03,0-1.98.52-2.53,1.39-.26.41-.8.53-1.2.27-.41-.26-.53-.8-.27-1.2,1.4-2.21,4.32-2.88,6.53-1.48,1.13.72,1.91,1.88,2.14,3.2l.25,1.44c.04.23-.01.46-.14.65-.18.26-1.25,1.54-4.78,1.54Z"/>
    <path class="cls-1" d="M20.05,8.72c-1.77,0-3.2-1.43-3.2-3.2s1.43-3.2,3.2-3.2,3.2,1.43,3.2,3.2c0,1.76-1.43,3.2-3.2,3.2ZM20.05,4.07c-.8,0-1.45.65-1.45,1.45s.65,1.45,1.45,1.45,1.45-.65,1.45-1.45c0-.8-.65-1.45-1.45-1.45Z"/>
    <path class="cls-1" d="M12.5,8.72c-2.41,0-4.36-1.95-4.36-4.36S10.09,0,12.5,0s4.36,1.95,4.36,4.36c0,2.41-1.95,4.36-4.36,4.36ZM12.5,1.74c-1.44,0-2.62,1.17-2.62,2.62s1.17,2.62,2.62,2.62,2.62-1.17,2.62-2.62c0-1.44-1.17-2.61-2.62-2.62Z"/>
  </g>
</svg>