<?xml version="1.0" encoding="UTF-8"?>
<svg id="_圖層_2" data-name="圖層 2" xmlns="http://www.w3.org/2000/svg" viewBox="0 0 18.9 17.01">
  <defs>
    <style>
      .cls-1 {
        fill: #040000;
        fill-rule: evenodd;
      }
    </style>
  </defs>
  <g id="_圖層_1-2" data-name="圖層 1">
    <path class="cls-1" d="M0,2.83c0-.75.3-1.47.83-2s1.25-.83,2-.83h13.23c.75,0,1.47.3,2,.83s.83,1.25.83,2v1.89c0,.25-.1.49-.28.67-.18.18-.42.28-.67.28v8.5c0,.75-.3,1.47-.83,2-.53.53-1.25.83-2,.83H3.78c-.75,0-1.47-.3-2-.83s-.83-1.25-.83-2V5.67c-.25,0-.49-.1-.67-.28-.18-.18-.28-.42-.28-.67v-1.89ZM2.83,5.67v8.5c0,.25.1.49.28.67.18.18.42.28.67.28h11.34c.25,0,.49-.1.67-.28s.28-.42.28-.67V5.67H2.83ZM1.89,3.78v-.94c0-.25.1-.49.28-.67.18-.18.42-.28.67-.28h13.23c.25,0,.49.1.67.28.18.18.28.42.28.67v.94H1.89ZM5.67,9.45c0-.25.1-.49.28-.67.18-.18.42-.28.67-.28h5.67c.25,0,.49.1.67.28s.28.42.28.67-.1.49-.28.67-.42.28-.67.28h-5.67c-.25,0-.49-.1-.67-.28-.18-.18-.28-.42-.28-.67h0Z"/>
  </g>
</svg>