<svg width="31" height="31" viewBox="0 0 31 31" fill="none" xmlns="http://www.w3.org/2000/svg">
	<g clip-path="url(#clip0_83_4937)">
		<path
			d="M15.3322 15.817L21.4977 11.0796C21.5936 11.0123 21.6607 10.9162 21.699 10.8009C21.7374 10.6952 21.7374 10.5799 21.699 10.4646C21.6703 10.3589 21.6032 10.2628 21.5073 10.1955C21.421 10.1283 21.3059 10.0898 21.1908 10.0802L13.4241 9.66701C13.3474 9.66701 13.2611 9.63818 13.1939 9.60935C13.1268 9.57091 13.0597 9.52286 13.0118 9.46521L8.2558 3.59385C8.18868 3.50736 8.0832 3.4401 7.97773 3.41127C7.86267 3.38244 7.7476 3.38244 7.63254 3.41127C7.51748 3.44971 7.42159 3.51697 7.34488 3.60346C7.26817 3.68994 7.22982 3.80526 7.22023 3.91096L6.61615 11.4447C6.61615 11.5216 6.58738 11.5985 6.54903 11.6658C6.51067 11.733 6.45314 11.8003 6.39561 11.8483L0.230127 16.5858C0.134241 16.6531 0.0671203 16.7491 0.0287658 16.8645C-0.00958862 16.9702 -0.00958862 17.0855 0.0287658 17.2008C0.0671203 17.3161 0.124652 17.4026 0.220538 17.4699C0.306836 17.5371 0.421899 17.5756 0.536963 17.5852L8.30374 17.9984C8.38045 17.9984 8.46675 18.0272 8.53387 18.056C8.60099 18.0945 8.66811 18.1425 8.71605 18.2002L13.472 24.0715C13.5391 24.158 13.6446 24.2253 13.7501 24.2541C13.8651 24.2829 13.9802 24.2829 14.0953 24.2541C14.2103 24.2157 14.3062 24.1484 14.3829 24.0619C14.4596 23.9754 14.498 23.8601 14.5076 23.7544L15.1117 16.2206C15.1117 16.1438 15.1404 16.0669 15.1788 15.9996C15.2171 15.9323 15.2747 15.8651 15.3322 15.817Z"
			fill="black" />
		<path
			d="M23.2904 4.59331C23.2904 4.45878 23.3671 4.33385 23.4726 4.24737L25.0835 2.96931C25.4287 2.70025 25.2561 2.1429 24.815 2.11408L22.763 1.97954C22.6288 1.97954 22.5042 1.90267 22.4179 1.79696L21.1426 0.182582C20.8741 -0.163358 20.3179 0.00961194 20.2892 0.451645L20.1549 2.50806C20.1549 2.64259 20.0782 2.76752 19.9728 2.854L18.3619 4.13206C18.0167 4.40112 18.1893 4.95847 18.6304 4.98729L20.6823 5.12183C20.8166 5.12183 20.9412 5.1987 21.0275 5.3044L22.3028 6.91879C22.5713 7.26473 23.1274 7.09176 23.1562 6.64972L23.2904 4.59331Z"
			fill="black" />
		<path
			d="M14.9867 30.9997C10.1924 30.9997 5.68572 28.8664 2.62695 25.1572C2.29135 24.744 2.34888 24.1386 2.7516 23.8022C3.16391 23.4659 3.768 23.5236 4.1036 23.9272C6.798 27.1944 10.7581 29.0682 14.9867 29.0682C17.7674 29.0682 20.4618 28.261 22.7726 26.7235C23.2137 26.4256 23.8082 26.5505 24.1055 26.9926C24.4027 27.4346 24.2781 28.0304 23.837 28.3283C21.2097 30.0676 18.1605 30.9901 14.9963 30.9901L14.9867 30.9997Z"
			fill="black" />
		<path
			d="M28.3921 22.784C28.2483 22.784 28.0949 22.7456 27.9511 22.6783C27.4812 22.438 27.299 21.8519 27.5387 21.381C28.5647 19.3726 29.0825 17.2105 29.0825 14.9331C29.0825 12.3385 28.373 9.79205 27.0306 7.59149C26.7525 7.13985 26.8963 6.54406 27.347 6.275C27.7976 5.99633 28.3921 6.14047 28.6606 6.59211C30.1852 9.10017 30.9906 11.983 30.9906 14.9427C30.9906 17.4892 30.3866 20.0165 29.2359 22.2651C29.0633 22.5918 28.7277 22.784 28.3825 22.784H28.3921Z"
			fill="black" />
	</g>
	<defs>
		<clipPath id="clip0_83_4937">
			<rect width="31" height="31" fill="white" />
		</clipPath>
	</defs>
</svg>