<svg xmlns="http://www.w3.org/2000/svg" width="16.984" height="19.842" viewBox="0 0 16.984 19.842">
  <g id="Group_66" data-name="Group 66" transform="translate(-337.704 -550.262)">
    <g id="Group_21" data-name="Group 21">
      <path id="Path_11" data-name="Path 11" d="M352.549,555.968H339.842a.55.55,0,1,1,0-1.1h12.707a.55.55,0,0,1,0,1.1Z" fill="#9e9e9f"/>
    </g>
    <g id="Group_22" data-name="Group 22">
      <path id="Path_12" data-name="Path 12" d="M349.373,555.968a.55.55,0,0,1-.55-.55v-1.43a2.627,2.627,0,0,0-5.254,0v1.43a.55.55,0,0,1-1.1,0v-1.43a3.727,3.727,0,0,1,7.453,0v1.43A.549.549,0,0,1,349.373,555.968Z" fill="#9e9e9f"/>
    </g>
    <g id="Group_23" data-name="Group 23">
      <path id="Path_13" data-name="Path 13" d="M346.2,562.321a3.73,3.73,0,0,1-3.726-3.726.55.55,0,0,1,1.1,0,2.627,2.627,0,1,0,5.254,0,.549.549,0,1,1,1.1,0A3.73,3.73,0,0,1,346.2,562.321Z" fill="#9e9e9f"/>
    </g>
    <g id="Group_25" data-name="Group 25">
      <g id="Group_24" data-name="Group 24">
        <path id="Path_14" data-name="Path 14" d="M352.549,570.1H339.842a2.14,2.14,0,0,1-2.138-2.137,2.2,2.2,0,0,1,.017-.272l1.575-12.346a.542.542,0,0,1,.615-.476.548.548,0,0,1,.476.615l-1.575,12.348a.959.959,0,0,0-.009.131,1.04,1.04,0,0,0,1.039,1.038h12.707a1.04,1.04,0,0,0,1.039-1.038,1.12,1.12,0,0,0-.008-.13L352,555.488a.549.549,0,1,1,1.09-.139l1.577,12.348a2.138,2.138,0,0,1-2.122,2.407Z" fill="#9e9e9f"/>
      </g>
    </g>
  </g>
</svg>
