<?xml version="1.0" encoding="UTF-8"?>
<svg id="_圖層_2" data-name="圖層 2" xmlns="http://www.w3.org/2000/svg" viewBox="0 0 23.74 23.74">
  <defs>
    <style>
      .cls-1 {
        fill: #fff;
      }
    </style>
  </defs>
  <g id="_圖層_1-2" data-name="圖層 1">
    <g>
      <path class="cls-1" d="M21.29,10.69c-.54-4.29-3.94-7.69-8.23-8.23v-1.28c0-.65-.53-1.18-1.18-1.18h0c-.65,0-1.18.53-1.18,1.18v1.27c-4.29.54-7.69,3.94-8.23,8.23h-1.28c-.65,0-1.18.53-1.18,1.18h0c0,.66.53,1.19,1.18,1.19h1.27c.54,4.29,3.94,7.69,8.23,8.23v1.27c0,.65.53,1.18,1.18,1.18h0c.65,0,1.18-.53,1.18-1.18v-1.27c4.29-.54,7.69-3.94,8.23-8.23h1.27c.65,0,1.18-.53,1.18-1.18h0c0-.65-.53-1.18-1.18-1.18h-1.27ZM18.89,13.07c-.5,2.97-2.85,5.32-5.83,5.82v-1.08c0-.65-.53-1.18-1.18-1.18h0c-.65,0-1.18.53-1.18,1.18v1.08c-2.97-.5-5.32-2.85-5.83-5.83h1.08c.65,0,1.18-.53,1.18-1.18h0c0-.66-.53-1.19-1.18-1.19h-1.08c.5-2.98,2.85-5.33,5.83-5.83v1.09c0,.65.53,1.18,1.18,1.18h0c.65,0,1.18-.53,1.18-1.18v-1.08c2.98.5,5.33,2.85,5.83,5.83h-1.09c-.65,0-1.18.53-1.18,1.18h0c0,.66.53,1.19,1.18,1.19h1.08Z"/>
      <circle class="cls-1" cx="11.87" cy="11.88" r="2.99"/>
    </g>
  </g>
</svg>