<?xml version="1.0" encoding="UTF-8"?>
<svg id="_圖層_2" data-name="圖層 2" xmlns="http://www.w3.org/2000/svg" viewBox="0 0 18.97 18.97">
  <defs>
    <style>
      .cls-1 {
        fill: #9d9d9e;
      }
    </style>
  </defs>
  <g id="_圖層_1-2" data-name="圖層 1">
    <g>
      <path class="cls-1" d="M12.39,9.55l-3.84,3.84-1.98-1.98c-.26-.26-.69-.26-.96,0s-.26.69,0,.96l2.46,2.46c.13.13.31.2.48.2s.35-.07.48-.2l4.32-4.32c.26-.26.26-.69,0-.96s-.69-.26-.96,0Z"/>
      <path class="cls-1" d="M15.58,1.33h-1.02v-.65c0-.37-.3-.68-.68-.68s-.68.3-.68.68v.65h-7.45v-.65c0-.37-.3-.68-.68-.68s-.68.3-.68.68v.65h-1.02C1.52,1.33,0,2.85,0,4.72v10.87c0,1.87,1.52,3.39,3.39,3.39h12.19c1.87,0,3.39-1.52,3.39-3.39V4.72c0-1.87-1.52-3.39-3.39-3.39ZM1.35,4.72c0-1.12.91-2.03,2.03-2.03h1.02v.65c0,.37.3.68.68.68s.68-.3.68-.68v-.65h7.45v.65c0,.37.3.68.68.68s.68-.3.68-.68v-.65h1.02c1.12,0,2.03.91,2.03,2.03v.68H1.35v-.68ZM15.58,17.61H3.39c-1.12,0-2.03-.91-2.03-2.03V6.75h16.26v8.83c0,1.12-.91,2.03-2.03,2.03Z"/>
    </g>
  </g>
</svg>