<svg xmlns="http://www.w3.org/2000/svg" width="21.343" height="18.316" viewBox="0 0 21.343 18.316">
  <g id="Group_67" data-name="Group 67" transform="translate(-283.322 -551.025)">
    <path id="Path_38" data-name="Path 38" d="M293.995,569.341h0a1.526,1.526,0,0,1-1.091-.453l-7.865-7.865a5.857,5.857,0,1,1,8.283-8.282l.448.446a.314.314,0,0,0,.225.1h0a.318.318,0,0,0,.226-.1l.446-.446a5.857,5.857,0,0,1,8.283,8.284l-7.864,7.864A1.533,1.533,0,0,1,293.995,569.341Zm-4.816-17.092a4.632,4.632,0,0,0-3.276,7.909l7.866,7.866a.316.316,0,0,0,.225.094h0a.316.316,0,0,0,.226-.094l7.864-7.863a4.634,4.634,0,0,0-6.553-6.553l-.446.446a1.536,1.536,0,0,1-1.091.452h0a1.532,1.532,0,0,1-1.091-.454l-.447-.444A4.6,4.6,0,0,0,289.179,552.249Z" fill="#9e9e9f"/>
  </g>
</svg>
