<?xml version="1.0" encoding="UTF-8"?>
<svg id="_圖層_2" data-name="圖層 2" xmlns="http://www.w3.org/2000/svg" viewBox="0 0 10.74 11.08">
  <defs>
    <style>
      .cls-1 {
        fill: #060001;
      }
    </style>
  </defs>
  <g id="_圖層_1-2" data-name="圖層 1">
    <path class="cls-1" d="M10.43,6.42l-.46-.38c-.32-.26-.32-.74,0-1l.46-.38c.33-.27.41-.73.2-1.1l-.91-1.58c-.21-.37-.66-.53-1.05-.38l-.56.21c-.38.14-.8-.1-.87-.5l-.1-.59c-.07-.42-.43-.72-.85-.72h-1.82c-.43,0-.78.3-.85.72l-.1.59c-.07.4-.49.64-.87.5l-.56-.21c-.4-.15-.84,0-1.05.38L.12,3.56c-.21.37-.13.83.2,1.1l.46.38c.32.26.32.74,0,1l-.46.38c-.33.27-.41.73-.2,1.1l.91,1.58c.21.37.66.53,1.05.38l.56-.21c.38-.14.8.1.87.5l.1.59c.07.42.43.72.85.72h1.82c.43,0,.78-.3.85-.72l.1-.59c.07-.4.49-.64.87-.5l.56.21c.4.15.84,0,1.05-.38l.91-1.58c.21-.37.13-.83-.2-1.1h0ZM8.97,8.67l-.56-.21c-.89-.33-1.87.23-2.03,1.17l-.1.59h-1.82l-.1-.59c-.16-.94-1.13-1.5-2.03-1.17l-.56.21-.91-1.58.46-.38c.74-.61.74-1.73,0-2.34l-.46-.38.91-1.58.56.21c.89.33,1.87-.23,2.03-1.17l.1-.59h1.82l.1.59c.16.94,1.13,1.5,2.03,1.17l.56-.21.91,1.58s0,0,0,0l-.46.38c-.74.61-.74,1.73,0,2.34l.46.38-.91,1.58ZM5.37,3.41c-1.18,0-2.14.96-2.14,2.14s.96,2.14,2.14,2.14,2.14-.96,2.14-2.14-.96-2.14-2.14-2.14ZM5.37,6.81c-.7,0-1.27-.57-1.27-1.27s.57-1.27,1.27-1.27,1.27.57,1.27,1.27-.57,1.27-1.27,1.27Z"/>
  </g>
</svg>