<svg width="28" height="28" viewBox="0 0 28 28" fill="none" xmlns="http://www.w3.org/2000/svg">
<path d="M7.84209 28.0003C5.83152 28.0003 3.82966 27.2344 2.29779 25.7112C0.818154 24.2316 0 22.2645 0 20.1669C0 18.0693 0.818154 16.1023 2.29779 14.6226L4.76096 12.1595C5.1004 11.82 5.64874 11.82 5.98819 12.1595C6.32763 12.4989 6.32763 13.0472 5.98819 13.3867L3.52502 15.8499C2.37613 16.9988 1.74075 18.5306 1.74075 20.1669C1.74075 21.7945 2.37613 23.3264 3.52502 24.484C5.90115 26.8601 9.77432 26.8601 12.1505 24.484L14.6136 22.0208C14.9531 21.6814 15.5014 21.6814 15.8408 22.0208C16.1803 22.3603 16.1803 22.9086 15.8408 23.2481L13.3777 25.7112C11.8458 27.2431 9.84395 28.0003 7.83339 28.0003H7.84209ZM9.06932 19.8014C8.84302 19.8014 8.62543 19.7143 8.45135 19.549C8.11191 19.2095 8.11191 18.6612 8.45135 18.3217L18.3127 8.46037C18.6522 8.12092 19.2005 8.12092 19.5399 8.46037C19.8794 8.79981 19.8794 9.34815 19.5399 9.6876L9.67858 19.549C9.50451 19.723 9.28691 19.8014 9.06062 19.8014H9.06932ZM22.6298 16.1023C22.4035 16.1023 22.1859 16.0152 22.0118 15.8499C21.6724 15.5104 21.6724 14.9621 22.0118 14.6226L24.475 12.1595C25.6239 11.0106 26.2592 9.47871 26.2592 7.8424C26.2592 6.20609 25.6239 4.68293 24.475 3.52533C22.0989 1.1492 18.2257 1.1492 15.8495 3.52533L13.3864 5.9885C13.0469 6.32794 12.4986 6.32794 12.1592 5.9885C11.8197 5.64905 11.8197 5.10071 12.1592 4.76127L14.6223 2.2981C17.6773 -0.756919 22.6559 -0.756919 25.7109 2.2981C27.1906 3.77774 28.0087 5.74479 28.0087 7.8424C28.0087 9.94 27.1906 11.9071 25.7109 13.3867L23.2477 15.8499C23.0737 16.0239 22.8561 16.1023 22.6298 16.1023Z" fill="black"/>
</svg>
