<?xml version="1.0" encoding="UTF-8"?>
<svg id="_圖層_2" data-name="圖層 2" xmlns="http://www.w3.org/2000/svg" viewBox="0 0 24.04 27.56">
  <defs>
    <style>
      .cls-1 {
        fill: #fff;
      }
    </style>
  </defs>
  <g id="_圖層_1-2" data-name="圖層 1">
    <g id="Layer_2" data-name="Layer 2">
      <path class="cls-1" d="M21.53,14.37l-3.99-2.85c.52-.93.79-1.98.79-3.05v-3.23c0-2.89-2.35-5.24-5.24-5.24h-2.15c-2.89,0-5.24,2.35-5.24,5.24v3.24c0,1.07.27,2.12.79,3.05l-3.99,2.85C.93,15.5,0,17.31,0,19.24v2.86c0,1.55.93,2.95,2.36,3.54,3.05,1.27,6.33,1.93,9.63,1.92,3.32,0,6.61-.65,9.68-1.92,1.44-.59,2.37-2,2.37-3.55v-2.85c0-1.93-.93-3.74-2.5-4.86h0ZM7.55,5.24c0-1.87,1.52-3.39,3.39-3.39h2.15c1.87,0,3.39,1.52,3.39,3.39v3.24c0,2.47-2,4.47-4.47,4.47-2.47,0-4.47-2-4.47-4.47h0s0-3.24,0-3.24ZM22.19,22.09c0,.83-.52,1.58-1.3,1.87-5.71,2.35-12.12,2.34-17.82-.03-.74-.31-1.22-1.03-1.22-1.83v-2.86c0-1.33.64-2.58,1.73-3.36l4.04-2.89c2.45,2.39,6.36,2.39,8.8,0l4.04,2.89c1.08.78,1.72,2.02,1.73,3.35v2.85Z"/>
    </g>
  </g>
</svg>