<?xml version="1.0" encoding="UTF-8"?>
<svg id="_圖層_2" data-name="圖層 2" xmlns="http://www.w3.org/2000/svg" viewBox="0 0 20.46 20.46">
  <defs>
    <style>
      .cls-1 {
        fill: #fff;
      }
    </style>
  </defs>
  <g id="_圖層_1-2" data-name="圖層 1">
    <g>
      <path class="cls-1" d="M17.72,20.46H2.74c-1.51,0-2.74-1.23-2.74-2.74h0V2.74C0,1.23,1.23,0,2.74,0h14.98c1.51,0,2.74,1.23,2.74,2.74h0v14.98c0,1.51-1.23,2.74-2.74,2.74h0ZM2.74,1.57c-.64,0-1.16.52-1.16,1.16h0v14.98c0,.64.52,1.16,1.16,1.16h14.98c.64,0,1.16-.52,1.16-1.16h0V2.74c0-.64-.52-1.16-1.16-1.16H2.74Z"/>
      <path class="cls-1" d="M.79,17.37c-.23,0-.45-.1-.6-.27-.28-.33-.24-.83.09-1.11,0,0,0,0,0,0l5.37-4.53c.83-.7,2.06-.65,2.83.12l2.55,2.55c.2.17.49.17.68,0l2.48-1.79c.75-.58,1.81-.58,2.56,0l3.41,2.72c.34.27.4.77.13,1.11-.27.34-.77.4-1.11.13l-3.4-2.73c-.19-.15-.45-.15-.64,0l-2.48,1.92c-.83.63-2,.55-2.74-.19l-2.55-2.6c-.2-.18-.5-.18-.7,0l-5.38,4.51c-.14.12-.32.18-.5.18Z"/>
      <path class="cls-1" d="M13.38,9.97c-1.59,0-2.89-1.29-2.89-2.89s1.29-2.89,2.89-2.89,2.89,1.29,2.89,2.89-1.29,2.89-2.89,2.89ZM13.38,5.77c-.72,0-1.31.59-1.31,1.31s.59,1.31,1.31,1.31,1.31-.59,1.31-1.31-.59-1.31-1.31-1.31Z"/>
    </g>
  </g>
</svg>