<?xml version="1.0" encoding="UTF-8"?>
<svg id="_圖層_2" data-name="圖層 2" xmlns="http://www.w3.org/2000/svg" viewBox="0 0 15.89 15.89">
  <defs>
    <style>
      .cls-1 {
        fill: #fff;
      }
    </style>
  </defs>
  <g id="_圖層_1-2" data-name="圖層 1">
    <g id="_Group_" data-name="&amp;lt;Group&amp;gt;">
      <path class="cls-1" d="M13.12,15.75l-2.72-2.72-1.32,1.32c-.11.11-.28.16-.44.12-.16-.04-.28-.15-.33-.31l-2.63-7.9c-.06-.17-.01-.35.11-.48.12-.12.31-.17.48-.11l7.9,2.63c.15.05.27.18.31.33.04.16,0,.32-.12.44l-1.32,1.32,2.72,2.72c.18.18.18.48,0,.66l-1.97,1.97c-.18.18-.48.18-.66,0Z"/>
      <path class="cls-1" d="M6.05,3.72c-.26,0-.47-.21-.47-.47V.47c0-.26.21-.47.47-.47s.47.21.47.47v2.79c0,.26-.21.47-.47.47Z"/>
      <path class="cls-1" d="M3.75,4.41l-1.98-1.98c-.18-.18-.18-.48,0-.66s.48-.18.66,0l1.98,1.98c.18.18.18.48,0,.66-.18.18-.48.18-.66,0Z"/>
      <path class="cls-1" d="M1.77,10.33c-.18-.18-.18-.48,0-.66l1.98-1.98c.18-.18.48-.18.66,0s.18.48,0,.66l-1.98,1.98c-.18.18-.48.18-.66,0Z"/>
      <path class="cls-1" d="M7.7,4.41c-.18-.18-.18-.48,0-.66l1.98-1.98c.18-.18.48-.18.66,0s.18.48,0,.66l-1.98,1.98c-.18.18-.48.18-.66,0Z"/>
      <path class="cls-1" d="M3.26,6.52H.47c-.26,0-.47-.21-.47-.47s.21-.47.47-.47h2.79c.26,0,.47.21.47.47s-.21.47-.47.47Z"/>
    </g>
  </g>
</svg>